<?xml version="1.0" encoding="UTF-8" standalone="no"?>
<svg
   xmlns:dc="http://purl.org/dc/elements/1.1/"
   xmlns:cc="http://creativecommons.org/ns#"
   xmlns:rdf="http://www.w3.org/1999/02/22-rdf-syntax-ns#"
   xmlns:svg="http://www.w3.org/2000/svg"
   xmlns="http://www.w3.org/2000/svg"
   viewBox="0 0 291.25 585"
   height="585"
   width="291.25"
   xml:space="preserve"
   version="1.1"
   id="svg2"><metadata
     id="metadata8"><rdf:RDF><cc:Work
         rdf:about=""><dc:format>image/svg+xml</dc:format><dc:type
           rdf:resource="http://purl.org/dc/dcmitype/StillImage" /><dc:title></dc:title></cc:Work></rdf:RDF></metadata><defs
     id="defs6" /><g
     transform="matrix(1.25,0,0,-1.25,0,585)"
     id="g10"><g
       id="g12"><path
         id="path14"
         style="fill:#ffffff;fill-opacity:1;fill-rule:nonzero;stroke:none"
         d="M 0,0 233,0 233,468 0,468 0,0 Z" /><path
         id="path16"
         style="fill:none;stroke:#ffffff;stroke-width:1;stroke-linecap:butt;stroke-linejoin:miter;stroke-miterlimit:4;stroke-dasharray:none;stroke-opacity:1"
         d="M 0,468 234,468 234,-1 0,-1 0,468 Z" /><path
         id="path18"
         style="fill:none;stroke:#000000;stroke-width:1;stroke-linecap:butt;stroke-linejoin:miter;stroke-miterlimit:4;stroke-dasharray:none;stroke-opacity:1"
         d="m 95.914,237 c 0,-22.121 -17.871,-40.051 -39.914,-40.051 -22.043,0 -39.914,17.93 -39.914,40.051 0,22.121 17.871,40.051 39.914,40.051 22.043,0 39.914,-17.93 39.914,-40.051 z" /><path
         id="path20"
         style="fill:#000000;fill-opacity:1;fill-rule:nonzero;stroke:none"
         d="m 44.266,232.801 -2.485,0 -3.14,4.328 c -0.231,0 -0.418,0 -0.563,0 -0.062,0 -0.133,0 -0.203,0 -0.062,0 -0.133,0 -0.203,0 l 0,-2.688 c 0,-0.586 0.062,-0.949 0.187,-1.093 0.176,-0.2 0.438,-0.297 0.782,-0.297 l 0.375,0 0,-0.25 -3.985,0 0,0.25 0.36,0 c 0.382,0 0.66,0.129 0.828,0.39 0.101,0.133 0.156,0.469 0.156,1 l 0,5.985 c 0,0.582 -0.07,0.945 -0.203,1.094 -0.18,0.195 -0.438,0.296 -0.781,0.296 l -0.36,0 0,0.25 3.375,0 c 0.989,0 1.719,-0.074 2.188,-0.218 0.469,-0.137 0.863,-0.399 1.187,-0.782 0.321,-0.386 0.485,-0.843 0.485,-1.375 0,-0.574 -0.188,-1.074 -0.563,-1.5 -0.367,-0.418 -0.937,-0.711 -1.719,-0.875 l 1.922,-2.656 c 0.438,-0.617 0.813,-1.027 1.125,-1.234 0.313,-0.199 0.723,-0.324 1.235,-0.375 l 0,-0.25 z m -6.594,4.765 c 0.094,0 0.172,0 0.234,0 0.063,0 0.114,0 0.157,0 0.882,0 1.55,0.188 2,0.563 0.445,0.383 0.671,0.875 0.671,1.469 0,0.57 -0.183,1.039 -0.546,1.406 -0.368,0.363 -0.844,0.547 -1.438,0.547 -0.262,0 -0.621,-0.043 -1.078,-0.125 l 0,-3.86 z" /><path
         id="path22"
         style="fill:#000000;fill-opacity:1;fill-rule:nonzero;stroke:none"
         d="m 45.633,236.707 c 0,-0.93 0.226,-1.656 0.687,-2.187 0.446,-0.532 0.985,-0.797 1.61,-0.797 0.406,0 0.758,0.109 1.062,0.328 0.301,0.226 0.555,0.617 0.766,1.172 l 0.203,-0.141 c -0.094,-0.625 -0.371,-1.195 -0.828,-1.703 -0.461,-0.512 -1.039,-0.766 -1.735,-0.766 -0.75,0 -1.398,0.289 -1.937,0.875 -0.531,0.582 -0.797,1.367 -0.797,2.36 0,1.07 0.274,1.906 0.828,2.5 0.551,0.601 1.238,0.906 2.063,0.906 0.707,0 1.285,-0.234 1.734,-0.703 0.445,-0.461 0.672,-1.074 0.672,-1.844 l -4.328,0 z m 0,0.391 2.906,0 c -0.023,0.406 -0.07,0.687 -0.141,0.843 -0.117,0.258 -0.289,0.461 -0.515,0.61 -0.231,0.144 -0.465,0.219 -0.703,0.219 -0.375,0 -0.715,-0.149 -1.016,-0.438 -0.305,-0.293 -0.48,-0.703 -0.531,-1.234 z" /><path
         id="path24"
         style="fill:#000000;fill-opacity:1;fill-rule:nonzero;stroke:none"
         d="m 52.461,235.082 c -0.387,0.188 -0.684,0.445 -0.891,0.781 -0.199,0.332 -0.297,0.703 -0.297,1.11 0,0.625 0.235,1.16 0.704,1.609 0.468,0.445 1.066,0.672 1.796,0.672 0.594,0 1.11,-0.149 1.547,-0.438 l 1.328,0 c 0.196,0 0.313,-0.011 0.344,-0.031 0.031,-0.012 0.051,-0.027 0.063,-0.047 0.031,-0.043 0.047,-0.117 0.047,-0.218 0,-0.125 -0.012,-0.211 -0.032,-0.25 -0.023,-0.024 -0.047,-0.043 -0.078,-0.063 -0.031,-0.012 -0.148,-0.016 -0.344,-0.016 l -0.812,0 c 0.25,-0.324 0.375,-0.742 0.375,-1.25 0,-0.586 -0.227,-1.086 -0.672,-1.5 -0.437,-0.418 -1.039,-0.625 -1.797,-0.625 -0.304,0 -0.617,0.047 -0.937,0.141 -0.211,-0.18 -0.352,-0.336 -0.422,-0.469 -0.063,-0.125 -0.094,-0.23 -0.094,-0.312 0,-0.086 0.035,-0.164 0.109,-0.235 0.071,-0.074 0.219,-0.125 0.438,-0.156 0.133,-0.023 0.457,-0.039 0.969,-0.047 0.937,-0.023 1.539,-0.054 1.812,-0.093 0.426,-0.063 0.766,-0.227 1.016,-0.485 0.258,-0.25 0.39,-0.562 0.39,-0.937 0,-0.508 -0.246,-0.993 -0.734,-1.453 -0.711,-0.657 -1.637,-0.985 -2.781,-0.985 -0.875,0 -1.617,0.199 -2.219,0.594 -0.344,0.23 -0.516,0.465 -0.516,0.703 0,0.117 0.024,0.227 0.079,0.328 0.07,0.168 0.226,0.403 0.468,0.703 0.032,0.043 0.266,0.293 0.703,0.75 -0.242,0.133 -0.414,0.258 -0.515,0.375 -0.094,0.114 -0.141,0.239 -0.141,0.375 0,0.157 0.063,0.344 0.188,0.563 0.133,0.219 0.437,0.519 0.906,0.906 z m 1.187,3.844 c -0.335,0 -0.617,-0.137 -0.843,-0.406 -0.231,-0.274 -0.344,-0.684 -0.344,-1.235 0,-0.73 0.156,-1.293 0.469,-1.687 0.238,-0.293 0.539,-0.438 0.906,-0.438 0.344,0 0.625,0.125 0.844,0.375 0.226,0.258 0.343,0.672 0.343,1.235 0,0.718 -0.156,1.285 -0.468,1.703 -0.242,0.3 -0.543,0.453 -0.907,0.453 z m -1.25,-6.125 c -0.218,-0.227 -0.386,-0.442 -0.5,-0.641 -0.105,-0.207 -0.156,-0.394 -0.156,-0.562 0,-0.219 0.133,-0.41 0.406,-0.578 0.446,-0.282 1.102,-0.422 1.969,-0.422 0.821,0 1.426,0.148 1.813,0.437 0.394,0.293 0.593,0.602 0.593,0.922 0,0.242 -0.121,0.414 -0.359,0.516 -0.23,0.093 -0.699,0.152 -1.406,0.172 -1.024,0.031 -1.809,0.085 -2.36,0.156 z" /><path
         id="path26"
         style="fill:#000000;fill-opacity:1;fill-rule:nonzero;stroke:none"
         d="m 70.32,232.801 -2.484,0 -3.141,4.328 c -0.23,0 -0.418,0 -0.562,0 -0.063,0 -0.133,0 -0.203,0 -0.063,0 -0.133,0 -0.203,0 l 0,-2.688 c 0,-0.586 0.062,-0.949 0.187,-1.093 0.176,-0.2 0.438,-0.297 0.781,-0.297 l 0.375,0 0,-0.25 -3.984,0 0,0.25 0.359,0 c 0.383,0 0.66,0.129 0.828,0.39 0.102,0.133 0.157,0.469 0.157,1 l 0,5.985 c 0,0.582 -0.071,0.945 -0.203,1.094 -0.18,0.195 -0.438,0.296 -0.782,0.296 l -0.359,0 0,0.25 3.375,0 c 0.988,0 1.719,-0.074 2.187,-0.218 0.469,-0.137 0.864,-0.399 1.188,-0.782 0.32,-0.386 0.484,-0.843 0.484,-1.375 0,-0.574 -0.187,-1.074 -0.562,-1.5 -0.367,-0.418 -0.938,-0.711 -1.719,-0.875 l 1.922,-2.656 c 0.437,-0.617 0.812,-1.027 1.125,-1.234 0.312,-0.199 0.723,-0.324 1.234,-0.375 l 0,-0.25 z m -6.593,4.765 c 0.093,0 0.171,0 0.234,0 0.062,0 0.113,0 0.156,0 0.883,0 1.551,0.188 2,0.563 0.446,0.383 0.672,0.875 0.672,1.469 0,0.57 -0.184,1.039 -0.547,1.406 -0.367,0.363 -0.844,0.547 -1.437,0.547 -0.262,0 -0.621,-0.043 -1.078,-0.125 l 0,-3.86 z" /><path
         id="path28"
         style="fill:#000000;fill-opacity:1;fill-rule:nonzero;stroke:none"
         d="m 70.703,237.379 c 0,1.062 0.16,1.973 0.485,2.734 0.32,0.758 0.742,1.328 1.265,1.703 0.414,0.301 0.844,0.454 1.281,0.454 0.707,0 1.344,-0.368 1.907,-1.094 0.707,-0.899 1.062,-2.117 1.062,-3.656 0,-1.075 -0.156,-1.985 -0.469,-2.735 -0.304,-0.75 -0.699,-1.297 -1.187,-1.64 -0.481,-0.344 -0.945,-0.516 -1.391,-0.516 -0.875,0 -1.609,0.523 -2.203,1.578 -0.5,0.875 -0.75,1.93 -0.75,3.172 z m 1.344,-0.172 c 0,-1.273 0.156,-2.312 0.469,-3.125 0.257,-0.68 0.648,-1.016 1.172,-1.016 0.238,0 0.488,0.11 0.75,0.329 0.269,0.226 0.472,0.597 0.609,1.109 0.207,0.789 0.312,1.898 0.312,3.328 0,1.051 -0.109,1.93 -0.328,2.641 -0.156,0.519 -0.367,0.89 -0.625,1.109 -0.187,0.156 -0.418,0.234 -0.687,0.234 -0.305,0 -0.578,-0.14 -0.828,-0.421 -0.325,-0.375 -0.547,-0.969 -0.672,-1.782 -0.117,-0.812 -0.172,-1.617 -0.172,-2.406 z" /><path
         id="path30"
         style="fill:none;stroke:#000000;stroke-width:1;stroke-linecap:butt;stroke-linejoin:miter;stroke-miterlimit:4;stroke-dasharray:none;stroke-opacity:1"
         d="m 5.777,159 100.445,0 0,-36 -100.445,0 0,36 z" /><path
         id="path32"
         style="fill:#000000;fill-opacity:1;fill-rule:nonzero;stroke:none"
         d="m 15.68,145.16 2.25,1.11 0.234,0 0,-7.829 c 0,-0.523 0.02,-0.851 0.063,-0.984 0.039,-0.125 0.128,-0.227 0.265,-0.297 0.133,-0.062 0.414,-0.101 0.844,-0.109 l 0,-0.25 -3.484,0 0,0.25 c 0.437,0.008 0.718,0.047 0.843,0.109 0.125,0.07 0.211,0.16 0.266,0.266 0.051,0.113 0.078,0.453 0.078,1.015 l 0,5 c 0,0.676 -0.027,1.11 -0.078,1.297 -0.031,0.145 -0.09,0.25 -0.172,0.313 -0.086,0.07 -0.184,0.109 -0.297,0.109 -0.179,0 -0.414,-0.07 -0.703,-0.203 l -0.109,0.203 z" /><path
         id="path34"
         style="fill:#000000;fill-opacity:1;fill-rule:nonzero;stroke:none"
         d="m 22.16,145.16 2.25,1.11 0.235,0 0,-7.829 c 0,-0.523 0.019,-0.851 0.062,-0.984 0.039,-0.125 0.129,-0.227 0.266,-0.297 0.132,-0.062 0.414,-0.101 0.843,-0.109 l 0,-0.25 -3.484,0 0,0.25 c 0.438,0.008 0.719,0.047 0.844,0.109 0.125,0.07 0.211,0.16 0.265,0.266 0.051,0.113 0.079,0.453 0.079,1.015 l 0,5 c 0,0.676 -0.028,1.11 -0.079,1.297 -0.031,0.145 -0.089,0.25 -0.171,0.313 -0.086,0.07 -0.184,0.109 -0.297,0.109 -0.18,0 -0.414,-0.07 -0.703,-0.203 l -0.11,0.203 z" /><path
         id="path36"
         style="fill:none;stroke:#000000;stroke-width:1;stroke-linecap:butt;stroke-linejoin:miter;stroke-miterlimit:4;stroke-dasharray:none;stroke-opacity:1"
         d="m 35.777,123 0,36" /><path
         id="path38"
         style="fill:#000000;fill-opacity:1;fill-rule:nonzero;stroke:none"
         d="m 50.172,139.91 -3.594,0 -0.625,-1.469 c -0.156,-0.367 -0.234,-0.636 -0.234,-0.812 0,-0.137 0.066,-0.262 0.203,-0.375 0.133,-0.106 0.426,-0.172 0.875,-0.203 l 0,-0.25 -2.922,0 0,0.25 c 0.383,0.07 0.633,0.16 0.75,0.265 0.227,0.219 0.488,0.664 0.781,1.344 l 3.25,7.625 0.25,0 3.219,-7.719 c 0.258,-0.617 0.492,-1.015 0.703,-1.203 0.219,-0.187 0.516,-0.293 0.891,-0.312 l 0,-0.25 -3.656,0 0,0.25 c 0.363,0.019 0.609,0.082 0.734,0.187 0.133,0.102 0.203,0.235 0.203,0.391 0,0.195 -0.09,0.508 -0.266,0.937 l -0.562,1.344 z m -0.188,0.5 -1.578,3.75 -1.609,-3.75 3.187,0 z" /><path
         id="path40"
         style="fill:#000000;fill-opacity:1;fill-rule:nonzero;stroke:none"
         d="m 58.742,137.504 c -0.304,-0.324 -0.601,-0.555 -0.89,-0.688 -0.293,-0.132 -0.61,-0.203 -0.954,-0.203 -0.679,0 -1.273,0.285 -1.781,0.86 -0.512,0.57 -0.765,1.304 -0.765,2.203 0,0.894 0.281,1.711 0.843,2.453 0.563,0.75 1.289,1.125 2.188,1.125 0.551,0 1.004,-0.18 1.359,-0.531 l 0,1.156 c 0,0.719 -0.015,1.156 -0.047,1.312 -0.031,0.164 -0.086,0.282 -0.156,0.344 -0.074,0.063 -0.168,0.094 -0.281,0.094 -0.117,0 -0.274,-0.039 -0.469,-0.109 l -0.094,0.234 1.875,0.766 0.297,0 0,-7.235 c 0,-0.742 0.016,-1.195 0.047,-1.359 0.039,-0.156 0.098,-0.266 0.172,-0.328 0.07,-0.063 0.16,-0.094 0.266,-0.094 0.125,0 0.285,0.039 0.484,0.125 l 0.078,-0.25 -1.859,-0.766 -0.313,0 0,0.891 z m 0,0.484 0,3.219 c -0.031,0.313 -0.117,0.594 -0.25,0.844 -0.137,0.258 -0.32,0.453 -0.547,0.578 -0.218,0.133 -0.437,0.203 -0.656,0.203 -0.398,0 -0.75,-0.184 -1.062,-0.547 -0.418,-0.469 -0.625,-1.164 -0.625,-2.078 0,-0.918 0.195,-1.621 0.593,-2.109 0.407,-0.493 0.852,-0.735 1.344,-0.735 0.414,0 0.816,0.207 1.203,0.625 z" /><path
         id="path42"
         style="fill:#000000;fill-opacity:1;fill-rule:nonzero;stroke:none"
         d="m 65.742,137.504 c -0.304,-0.324 -0.601,-0.555 -0.89,-0.688 -0.293,-0.132 -0.61,-0.203 -0.954,-0.203 -0.679,0 -1.273,0.285 -1.781,0.86 -0.512,0.57 -0.765,1.304 -0.765,2.203 0,0.894 0.281,1.711 0.843,2.453 0.563,0.75 1.289,1.125 2.188,1.125 0.551,0 1.004,-0.18 1.359,-0.531 l 0,1.156 c 0,0.719 -0.015,1.156 -0.047,1.312 -0.031,0.164 -0.086,0.282 -0.156,0.344 -0.074,0.063 -0.168,0.094 -0.281,0.094 -0.117,0 -0.274,-0.039 -0.469,-0.109 l -0.094,0.234 1.875,0.766 0.297,0 0,-7.235 c 0,-0.742 0.016,-1.195 0.047,-1.359 0.039,-0.156 0.098,-0.266 0.172,-0.328 0.07,-0.063 0.16,-0.094 0.266,-0.094 0.125,0 0.285,0.039 0.484,0.125 l 0.078,-0.25 -1.859,-0.766 -0.313,0 0,0.891 z m 0,0.484 0,3.219 c -0.031,0.313 -0.117,0.594 -0.25,0.844 -0.137,0.258 -0.32,0.453 -0.547,0.578 -0.218,0.133 -0.437,0.203 -0.656,0.203 -0.398,0 -0.75,-0.184 -1.062,-0.547 -0.418,-0.469 -0.625,-1.164 -0.625,-2.078 0,-0.918 0.195,-1.621 0.593,-2.109 0.407,-0.493 0.852,-0.735 1.344,-0.735 0.414,0 0.816,0.207 1.203,0.625 z" /><path
         id="path44"
         style="fill:#000000;fill-opacity:1;fill-rule:nonzero;stroke:none"
         d="m 80.852,136.801 -2.485,0 -3.14,4.328 c -0.231,0 -0.418,0 -0.563,0 -0.062,0 -0.133,0 -0.203,0 -0.063,0 -0.133,0 -0.203,0 l 0,-2.688 c 0,-0.586 0.062,-0.949 0.187,-1.093 0.176,-0.2 0.438,-0.297 0.782,-0.297 l 0.375,0 0,-0.25 -3.985,0 0,0.25 0.36,0 c 0.382,0 0.66,0.129 0.828,0.39 0.101,0.133 0.156,0.469 0.156,1 l 0,5.985 c 0,0.582 -0.07,0.945 -0.203,1.094 -0.18,0.195 -0.438,0.296 -0.781,0.296 l -0.36,0 0,0.25 3.375,0 c 0.988,0 1.719,-0.074 2.188,-0.218 0.468,-0.137 0.863,-0.399 1.187,-0.782 0.321,-0.386 0.485,-0.843 0.485,-1.375 0,-0.574 -0.188,-1.074 -0.563,-1.5 -0.367,-0.418 -0.937,-0.711 -1.719,-0.875 l 1.922,-2.656 c 0.438,-0.617 0.813,-1.027 1.125,-1.234 0.313,-0.199 0.723,-0.324 1.235,-0.375 l 0,-0.25 z m -6.594,4.765 c 0.094,0 0.172,0 0.234,0 0.063,0 0.113,0 0.156,0 0.883,0 1.551,0.188 2,0.563 0.446,0.383 0.672,0.875 0.672,1.469 0,0.57 -0.183,1.039 -0.547,1.406 -0.367,0.363 -0.843,0.547 -1.437,0.547 -0.262,0 -0.621,-0.043 -1.078,-0.125 l 0,-3.86 z" /><path
         id="path46"
         style="fill:#000000;fill-opacity:1;fill-rule:nonzero;stroke:none"
         d="m 81.234,141.379 c 0,1.062 0.161,1.973 0.485,2.734 0.32,0.758 0.742,1.328 1.265,1.703 0.414,0.301 0.844,0.454 1.282,0.454 0.707,0 1.343,-0.368 1.906,-1.094 0.707,-0.899 1.062,-2.117 1.062,-3.656 0,-1.075 -0.156,-1.985 -0.468,-2.735 -0.305,-0.75 -0.7,-1.297 -1.188,-1.64 -0.48,-0.344 -0.945,-0.516 -1.39,-0.516 -0.875,0 -1.61,0.523 -2.204,1.578 -0.5,0.875 -0.75,1.93 -0.75,3.172 z m 1.344,-0.172 c 0,-1.273 0.156,-2.312 0.469,-3.125 0.258,-0.68 0.648,-1.016 1.172,-1.016 0.238,0 0.488,0.11 0.75,0.329 0.269,0.226 0.472,0.597 0.609,1.109 0.207,0.789 0.313,1.898 0.313,3.328 0,1.051 -0.11,1.93 -0.328,2.641 -0.157,0.519 -0.368,0.89 -0.625,1.109 -0.188,0.156 -0.418,0.234 -0.688,0.234 -0.305,0 -0.578,-0.14 -0.828,-0.421 -0.324,-0.375 -0.547,-0.969 -0.672,-1.782 -0.117,-0.812 -0.172,-1.617 -0.172,-2.406 z" /><path
         id="path48"
         style="fill:#000000;fill-opacity:1;fill-rule:nonzero;stroke:none"
         d="m 92.875,145.16 2.25,1.11 0.234,0 0,-7.829 c 0,-0.523 0.02,-0.851 0.063,-0.984 0.039,-0.125 0.129,-0.227 0.266,-0.297 0.132,-0.062 0.414,-0.101 0.843,-0.109 l 0,-0.25 -3.484,0 0,0.25 c 0.437,0.008 0.719,0.047 0.844,0.109 0.125,0.07 0.211,0.16 0.265,0.266 0.051,0.113 0.078,0.453 0.078,1.015 l 0,5 c 0,0.676 -0.027,1.11 -0.078,1.297 -0.031,0.145 -0.09,0.25 -0.172,0.313 -0.086,0.07 -0.183,0.109 -0.296,0.109 -0.18,0 -0.415,-0.07 -0.704,-0.203 l -0.109,0.203 z" /><path
         id="path50"
         style="fill:none;stroke:#000000;stroke-width:1;stroke-linecap:butt;stroke-linejoin:miter;stroke-miterlimit:4;stroke-dasharray:none;stroke-opacity:1"
         d="m 49.344,197.223 c -0.215,-9.348 -0.059,-19.145 0.457,-27.844" /><path
         id="path52"
         style="fill:#000000;fill-opacity:1;fill-rule:nonzero;stroke:#000000;stroke-width:1;stroke-linecap:butt;stroke-linejoin:miter;stroke-miterlimit:4;stroke-dasharray:none;stroke-opacity:1"
         d="m 53.293,169.66 -2.676,-10.25 -4.304,9.68 6.98,0.57 z" /><path
         id="path54"
         style="fill:none;stroke:#000000;stroke-width:1;stroke-linecap:butt;stroke-linejoin:miter;stroke-miterlimit:4;stroke-dasharray:none;stroke-opacity:1"
         d="M 216.914,45 C 216.914,22.879 199.043,4.949 177,4.949 c -22.043,0 -39.914,17.93 -39.914,40.051 0,22.121 17.871,40.051 39.914,40.051 22.043,0 39.914,-17.93 39.914,-40.051 z" /><path
         id="path56"
         style="fill:#000000;fill-opacity:1;fill-rule:nonzero;stroke:none"
         d="m 165.266,40.801 -2.485,0 -3.14,4.328 c -0.231,0 -0.418,0 -0.563,0 -0.062,0 -0.133,0 -0.203,0 -0.062,0 -0.133,0 -0.203,0 l 0,-2.688 c 0,-0.586 0.062,-0.949 0.187,-1.093 0.176,-0.2 0.438,-0.297 0.782,-0.297 l 0.375,0 0,-0.25 -3.985,0 0,0.25 0.36,0 c 0.382,0 0.66,0.129 0.828,0.39 0.101,0.133 0.156,0.469 0.156,1 l 0,5.985 c 0,0.582 -0.07,0.945 -0.203,1.094 -0.18,0.195 -0.438,0.296 -0.781,0.296 l -0.36,0 0,0.25 3.375,0 c 0.989,0 1.719,-0.074 2.188,-0.218 0.469,-0.137 0.863,-0.399 1.187,-0.782 0.321,-0.386 0.485,-0.843 0.485,-1.375 0,-0.574 -0.188,-1.074 -0.563,-1.5 -0.367,-0.418 -0.937,-0.711 -1.719,-0.875 l 1.922,-2.656 c 0.438,-0.617 0.813,-1.027 1.125,-1.234 0.313,-0.199 0.723,-0.324 1.235,-0.375 l 0,-0.25 z m -6.594,4.765 c 0.094,0 0.172,0 0.234,0 0.063,0 0.114,0 0.157,0 0.882,0 1.55,0.188 2,0.563 0.445,0.383 0.671,0.875 0.671,1.469 0,0.57 -0.183,1.039 -0.546,1.406 -0.368,0.363 -0.844,0.547 -1.438,0.547 -0.262,0 -0.621,-0.043 -1.078,-0.125 l 0,-3.86 z" /><path
         id="path58"
         style="fill:#000000;fill-opacity:1;fill-rule:nonzero;stroke:none"
         d="m 166.633,44.707 c 0,-0.93 0.226,-1.656 0.687,-2.187 0.446,-0.532 0.985,-0.797 1.61,-0.797 0.406,0 0.758,0.109 1.062,0.328 0.301,0.226 0.555,0.617 0.766,1.172 l 0.203,-0.141 c -0.094,-0.625 -0.371,-1.195 -0.828,-1.703 -0.461,-0.512 -1.039,-0.766 -1.735,-0.766 -0.75,0 -1.398,0.289 -1.937,0.875 -0.531,0.582 -0.797,1.367 -0.797,2.36 0,1.07 0.274,1.906 0.828,2.5 0.551,0.601 1.238,0.906 2.063,0.906 0.707,0 1.285,-0.234 1.734,-0.703 0.445,-0.461 0.672,-1.074 0.672,-1.844 l -4.328,0 z m 0,0.391 2.906,0 c -0.023,0.406 -0.07,0.687 -0.141,0.843 -0.117,0.258 -0.289,0.461 -0.515,0.61 -0.231,0.144 -0.465,0.219 -0.703,0.219 -0.375,0 -0.715,-0.149 -1.016,-0.438 -0.305,-0.293 -0.48,-0.703 -0.531,-1.234 z" /><path
         id="path60"
         style="fill:#000000;fill-opacity:1;fill-rule:nonzero;stroke:none"
         d="m 173.461,43.082 c -0.387,0.188 -0.684,0.445 -0.891,0.781 -0.199,0.332 -0.297,0.703 -0.297,1.11 0,0.625 0.235,1.16 0.704,1.609 0.468,0.445 1.066,0.672 1.796,0.672 0.594,0 1.11,-0.149 1.547,-0.438 l 1.328,0 c 0.196,0 0.313,-0.011 0.344,-0.031 0.031,-0.012 0.051,-0.027 0.063,-0.047 0.031,-0.043 0.047,-0.117 0.047,-0.218 0,-0.125 -0.012,-0.211 -0.032,-0.25 -0.023,-0.024 -0.047,-0.043 -0.078,-0.063 -0.031,-0.012 -0.148,-0.016 -0.344,-0.016 l -0.812,0 c 0.25,-0.324 0.375,-0.742 0.375,-1.25 0,-0.586 -0.227,-1.086 -0.672,-1.5 -0.437,-0.418 -1.039,-0.625 -1.797,-0.625 -0.304,0 -0.617,0.047 -0.937,0.141 -0.211,-0.18 -0.352,-0.336 -0.422,-0.469 -0.063,-0.125 -0.094,-0.23 -0.094,-0.312 0,-0.086 0.035,-0.164 0.109,-0.235 0.071,-0.074 0.219,-0.125 0.438,-0.156 0.133,-0.023 0.457,-0.039 0.969,-0.047 0.937,-0.023 1.539,-0.054 1.812,-0.093 0.426,-0.063 0.766,-0.227 1.016,-0.485 0.258,-0.25 0.39,-0.562 0.39,-0.937 0,-0.508 -0.246,-0.993 -0.734,-1.453 -0.711,-0.657 -1.637,-0.985 -2.781,-0.985 -0.875,0 -1.617,0.199 -2.219,0.594 -0.344,0.23 -0.516,0.465 -0.516,0.703 0,0.117 0.024,0.227 0.079,0.328 0.07,0.168 0.226,0.403 0.468,0.703 0.032,0.043 0.266,0.293 0.703,0.75 -0.242,0.133 -0.414,0.258 -0.515,0.375 -0.094,0.114 -0.141,0.239 -0.141,0.375 0,0.157 0.063,0.344 0.188,0.563 0.133,0.219 0.437,0.519 0.906,0.906 z m 1.187,3.844 c -0.335,0 -0.617,-0.137 -0.843,-0.406 -0.231,-0.274 -0.344,-0.684 -0.344,-1.235 0,-0.73 0.156,-1.293 0.469,-1.687 0.238,-0.293 0.539,-0.438 0.906,-0.438 0.344,0 0.625,0.125 0.844,0.375 0.226,0.258 0.343,0.672 0.343,1.235 0,0.718 -0.156,1.285 -0.468,1.703 -0.242,0.3 -0.543,0.453 -0.907,0.453 z m -1.25,-6.125 c -0.218,-0.227 -0.386,-0.442 -0.5,-0.641 -0.105,-0.207 -0.156,-0.394 -0.156,-0.562 0,-0.219 0.133,-0.41 0.406,-0.578 0.446,-0.282 1.102,-0.422 1.969,-0.422 0.821,0 1.426,0.148 1.813,0.437 0.394,0.293 0.593,0.602 0.593,0.922 0,0.242 -0.121,0.414 -0.359,0.516 -0.23,0.093 -0.699,0.152 -1.406,0.172 -1.024,0.031 -1.809,0.085 -2.36,0.156 z" /><path
         id="path62"
         style="fill:#000000;fill-opacity:1;fill-rule:nonzero;stroke:none"
         d="m 191.32,40.801 -2.484,0 -3.141,4.328 c -0.23,0 -0.418,0 -0.562,0 -0.063,0 -0.133,0 -0.203,0 -0.063,0 -0.133,0 -0.203,0 l 0,-2.688 c 0,-0.586 0.062,-0.949 0.187,-1.093 0.176,-0.2 0.438,-0.297 0.781,-0.297 l 0.375,0 0,-0.25 -3.984,0 0,0.25 0.359,0 c 0.383,0 0.66,0.129 0.828,0.39 0.102,0.133 0.157,0.469 0.157,1 l 0,5.985 c 0,0.582 -0.071,0.945 -0.203,1.094 -0.18,0.195 -0.438,0.296 -0.782,0.296 l -0.359,0 0,0.25 3.375,0 c 0.988,0 1.719,-0.074 2.187,-0.218 0.469,-0.137 0.864,-0.399 1.188,-0.782 0.32,-0.386 0.484,-0.843 0.484,-1.375 0,-0.574 -0.187,-1.074 -0.562,-1.5 -0.367,-0.418 -0.938,-0.711 -1.719,-0.875 l 1.922,-2.656 c 0.437,-0.617 0.812,-1.027 1.125,-1.234 0.312,-0.199 0.723,-0.324 1.234,-0.375 l 0,-0.25 z m -6.593,4.765 c 0.093,0 0.171,0 0.234,0 0.062,0 0.113,0 0.156,0 0.883,0 1.551,0.188 2,0.563 0.446,0.383 0.672,0.875 0.672,1.469 0,0.57 -0.184,1.039 -0.547,1.406 -0.367,0.363 -0.844,0.547 -1.437,0.547 -0.262,0 -0.621,-0.043 -1.078,-0.125 l 0,-3.86 z" /><path
         id="path64"
         style="fill:#000000;fill-opacity:1;fill-rule:nonzero;stroke:none"
         d="m 192.844,49.16 2.25,1.11 0.234,0 0,-7.829 c 0,-0.523 0.02,-0.851 0.063,-0.984 0.039,-0.125 0.129,-0.227 0.265,-0.297 0.133,-0.062 0.414,-0.101 0.844,-0.109 l 0,-0.25 -3.484,0 0,0.25 c 0.437,0.008 0.718,0.047 0.843,0.109 0.125,0.07 0.211,0.16 0.266,0.266 0.051,0.113 0.078,0.453 0.078,1.015 l 0,5 c 0,0.676 -0.027,1.11 -0.078,1.297 -0.031,0.145 -0.09,0.25 -0.172,0.313 -0.086,0.07 -0.183,0.109 -0.297,0.109 -0.179,0 -0.414,-0.07 -0.703,-0.203 l -0.109,0.203 z" /><path
         id="path66"
         style="fill:none;stroke:#000000;stroke-width:1;stroke-linecap:butt;stroke-linejoin:miter;stroke-miterlimit:4;stroke-dasharray:none;stroke-opacity:1"
         d="m 94.184,426 c 0,-21.121 -17.094,-38.246 -38.184,-38.246 -21.09,0 -38.184,17.125 -38.184,38.246 0,21.121 17.094,38.246 38.184,38.246 21.09,0 38.184,-17.125 38.184,-38.246 z" /><path
         id="path68"
         style="fill:#000000;fill-opacity:1;fill-rule:nonzero;stroke:none"
         d="m 42.758,424.91 -3.594,0 -0.625,-1.469 c -0.156,-0.367 -0.234,-0.636 -0.234,-0.812 0,-0.137 0.066,-0.262 0.203,-0.375 0.133,-0.106 0.426,-0.172 0.875,-0.203 l 0,-0.25 -2.922,0 0,0.25 c 0.383,0.07 0.633,0.16 0.75,0.265 0.227,0.219 0.488,0.664 0.781,1.344 l 3.25,7.625 0.25,0 3.219,-7.719 c 0.258,-0.617 0.492,-1.015 0.703,-1.203 0.219,-0.187 0.516,-0.293 0.891,-0.312 l 0,-0.25 -3.657,0 0,0.25 c 0.364,0.019 0.61,0.082 0.735,0.187 0.133,0.102 0.203,0.235 0.203,0.391 0,0.195 -0.09,0.508 -0.266,0.937 l -0.562,1.344 z m -0.188,0.5 -1.578,3.75 -1.609,-3.75 3.187,0 z" /><path
         id="path70"
         style="fill:#000000;fill-opacity:1;fill-rule:nonzero;stroke:none"
         d="m 51.328,422.504 c -0.305,-0.324 -0.601,-0.555 -0.89,-0.688 -0.293,-0.132 -0.61,-0.203 -0.954,-0.203 -0.679,0 -1.273,0.285 -1.781,0.86 -0.512,0.57 -0.765,1.304 -0.765,2.203 0,0.894 0.281,1.711 0.843,2.453 0.563,0.75 1.289,1.125 2.188,1.125 0.551,0 1.004,-0.18 1.359,-0.531 l 0,1.156 c 0,0.719 -0.015,1.156 -0.047,1.312 -0.031,0.164 -0.086,0.282 -0.156,0.344 -0.074,0.063 -0.168,0.094 -0.281,0.094 -0.117,0 -0.274,-0.039 -0.469,-0.109 l -0.094,0.234 1.875,0.766 0.297,0 0,-7.235 c 0,-0.742 0.016,-1.195 0.047,-1.359 0.039,-0.156 0.098,-0.266 0.172,-0.328 0.07,-0.063 0.16,-0.094 0.266,-0.094 0.125,0 0.285,0.039 0.484,0.125 l 0.078,-0.25 -1.859,-0.766 -0.313,0 0,0.891 z m 0,0.484 0,3.219 c -0.031,0.313 -0.117,0.594 -0.25,0.844 -0.137,0.258 -0.32,0.453 -0.547,0.578 -0.218,0.133 -0.437,0.203 -0.656,0.203 -0.398,0 -0.75,-0.184 -1.062,-0.547 -0.418,-0.469 -0.625,-1.164 -0.625,-2.078 0,-0.918 0.195,-1.621 0.593,-2.109 0.407,-0.493 0.852,-0.735 1.344,-0.735 0.414,0 0.816,0.207 1.203,0.625 z" /><path
         id="path72"
         style="fill:#000000;fill-opacity:1;fill-rule:nonzero;stroke:none"
         d="m 58.328,422.504 c -0.305,-0.324 -0.601,-0.555 -0.89,-0.688 -0.293,-0.132 -0.61,-0.203 -0.954,-0.203 -0.679,0 -1.273,0.285 -1.781,0.86 -0.512,0.57 -0.765,1.304 -0.765,2.203 0,0.894 0.281,1.711 0.843,2.453 0.563,0.75 1.289,1.125 2.188,1.125 0.551,0 1.004,-0.18 1.359,-0.531 l 0,1.156 c 0,0.719 -0.015,1.156 -0.047,1.312 -0.031,0.164 -0.086,0.282 -0.156,0.344 -0.074,0.063 -0.168,0.094 -0.281,0.094 -0.117,0 -0.274,-0.039 -0.469,-0.109 l -0.094,0.234 1.875,0.766 0.297,0 0,-7.235 c 0,-0.742 0.016,-1.195 0.047,-1.359 0.039,-0.156 0.098,-0.266 0.172,-0.328 0.07,-0.063 0.16,-0.094 0.266,-0.094 0.125,0 0.285,0.039 0.484,0.125 l 0.078,-0.25 -1.859,-0.766 -0.313,0 0,0.891 z m 0,0.484 0,3.219 c -0.031,0.313 -0.117,0.594 -0.25,0.844 -0.137,0.258 -0.32,0.453 -0.547,0.578 -0.218,0.133 -0.437,0.203 -0.656,0.203 -0.398,0 -0.75,-0.184 -1.062,-0.547 -0.418,-0.469 -0.625,-1.164 -0.625,-2.078 0,-0.918 0.195,-1.621 0.593,-2.109 0.407,-0.493 0.852,-0.735 1.344,-0.735 0.414,0 0.816,0.207 1.203,0.625 z" /><path
         id="path74"
         style="fill:#000000;fill-opacity:1;fill-rule:nonzero;stroke:none"
         d="m 62.734,428.254 0,-1.422 c 0.532,0.945 1.071,1.422 1.625,1.422 0.25,0 0.454,-0.078 0.61,-0.234 0.164,-0.157 0.25,-0.336 0.25,-0.532 0,-0.179 -0.063,-0.328 -0.188,-0.453 -0.117,-0.125 -0.25,-0.187 -0.406,-0.187 -0.168,0 -0.352,0.078 -0.547,0.234 -0.199,0.164 -0.344,0.25 -0.437,0.25 -0.086,0 -0.172,-0.047 -0.266,-0.141 -0.211,-0.187 -0.422,-0.496 -0.641,-0.921 l 0,-3 c 0,-0.356 0.047,-0.622 0.141,-0.797 0.051,-0.118 0.148,-0.215 0.297,-0.297 0.156,-0.086 0.375,-0.125 0.656,-0.125 l 0,-0.25 -3.203,0 0,0.25 c 0.32,0 0.563,0.047 0.719,0.14 0.113,0.071 0.191,0.192 0.234,0.36 0.02,0.07 0.031,0.289 0.031,0.656 l 0,2.422 c 0,0.726 -0.015,1.16 -0.046,1.297 -0.032,0.144 -0.09,0.25 -0.172,0.312 -0.075,0.063 -0.168,0.094 -0.282,0.094 -0.148,0 -0.308,-0.031 -0.484,-0.094 l -0.062,0.25 1.89,0.766 0.281,0 z" /><path
         id="path76"
         style="fill:#000000;fill-opacity:1;fill-rule:nonzero;stroke:none"
         d="m 69.148,426.379 c 0,1.062 0.161,1.973 0.485,2.734 0.32,0.758 0.742,1.328 1.265,1.703 0.415,0.301 0.844,0.454 1.282,0.454 0.707,0 1.343,-0.368 1.906,-1.094 0.707,-0.899 1.062,-2.117 1.062,-3.656 0,-1.075 -0.156,-1.985 -0.468,-2.735 -0.305,-0.75 -0.7,-1.297 -1.188,-1.64 -0.48,-0.344 -0.945,-0.516 -1.39,-0.516 -0.875,0 -1.61,0.523 -2.204,1.578 -0.5,0.875 -0.75,1.93 -0.75,3.172 z m 1.344,-0.172 c 0,-1.273 0.156,-2.312 0.469,-3.125 0.258,-0.68 0.648,-1.016 1.172,-1.016 0.238,0 0.488,0.11 0.75,0.329 0.269,0.226 0.472,0.597 0.609,1.109 0.207,0.789 0.313,1.898 0.313,3.328 0,1.051 -0.11,1.93 -0.328,2.641 -0.157,0.519 -0.368,0.89 -0.625,1.109 -0.188,0.156 -0.418,0.234 -0.688,0.234 -0.305,0 -0.578,-0.14 -0.828,-0.421 -0.324,-0.375 -0.547,-0.969 -0.672,-1.782 -0.117,-0.812 -0.172,-1.617 -0.172,-2.406 z" /><path
         id="path78"
         style="fill:none;stroke:#000000;stroke-width:1;stroke-linecap:butt;stroke-linejoin:miter;stroke-miterlimit:4;stroke-dasharray:none;stroke-opacity:1"
         d="m 3.449,351 105.102,0 0,-36 -105.102,0 0,36 z" /><path
         id="path80"
         style="fill:#000000;fill-opacity:1;fill-rule:nonzero;stroke:none"
         d="m 13.09,337.16 2.25,1.11 0.234,0 0,-7.829 c 0,-0.523 0.02,-0.851 0.063,-0.984 0.039,-0.125 0.129,-0.227 0.265,-0.297 0.133,-0.062 0.414,-0.101 0.844,-0.109 l 0,-0.25 -3.484,0 0,0.25 c 0.437,0.008 0.718,0.047 0.843,0.109 0.125,0.07 0.211,0.16 0.266,0.266 0.051,0.113 0.078,0.453 0.078,1.015 l 0,5 c 0,0.676 -0.027,1.11 -0.078,1.297 -0.031,0.145 -0.09,0.25 -0.172,0.313 -0.086,0.07 -0.183,0.109 -0.297,0.109 -0.179,0 -0.414,-0.07 -0.703,-0.203 l -0.109,0.203 z" /><path
         id="path82"
         style="fill:#000000;fill-opacity:1;fill-rule:nonzero;stroke:none"
         d="m 18.949,333.379 c 0,1.062 0.16,1.973 0.485,2.734 0.32,0.758 0.742,1.328 1.265,1.703 0.414,0.301 0.844,0.454 1.281,0.454 0.708,0 1.344,-0.368 1.907,-1.094 0.707,-0.899 1.062,-2.117 1.062,-3.656 0,-1.075 -0.156,-1.985 -0.469,-2.735 -0.304,-0.75 -0.699,-1.297 -1.187,-1.64 -0.48,-0.344 -0.945,-0.516 -1.391,-0.516 -0.875,0 -1.609,0.523 -2.203,1.578 -0.5,0.875 -0.75,1.93 -0.75,3.172 z m 1.344,-0.172 c 0,-1.273 0.156,-2.312 0.469,-3.125 0.258,-0.68 0.648,-1.016 1.172,-1.016 0.238,0 0.488,0.11 0.75,0.329 0.269,0.226 0.472,0.597 0.609,1.109 0.207,0.789 0.312,1.898 0.312,3.328 0,1.051 -0.109,1.93 -0.328,2.641 -0.156,0.519 -0.367,0.89 -0.625,1.109 -0.187,0.156 -0.418,0.234 -0.687,0.234 -0.305,0 -0.578,-0.14 -0.828,-0.421 -0.324,-0.375 -0.547,-0.969 -0.672,-1.782 -0.117,-0.812 -0.172,-1.617 -0.172,-2.406 z" /><path
         id="path84"
         style="fill:none;stroke:#000000;stroke-width:1;stroke-linecap:butt;stroke-linejoin:miter;stroke-miterlimit:4;stroke-dasharray:none;stroke-opacity:1"
         d="m 33.449,315 0,36" /><path
         id="path86"
         style="fill:#000000;fill-opacity:1;fill-rule:nonzero;stroke:none"
         d="m 49.473,331.363 0.218,-0.047 -0.796,-2.515 -7.172,0 0,0.25 0.343,0 c 0.395,0 0.676,0.129 0.844,0.39 0.094,0.145 0.141,0.477 0.141,1 l 0,5.985 c 0,0.582 -0.063,0.945 -0.188,1.094 -0.179,0.195 -0.445,0.296 -0.797,0.296 l -0.343,0 0,0.25 4.203,0 0,-0.25 c -0.5,0.008 -0.852,-0.039 -1.047,-0.14 -0.199,-0.094 -0.336,-0.215 -0.406,-0.36 -0.075,-0.148 -0.11,-0.496 -0.11,-1.046 l 0,-5.829 c 0,-0.375 0.035,-0.632 0.11,-0.765 0.062,-0.106 0.144,-0.18 0.25,-0.219 0.113,-0.043 0.472,-0.062 1.078,-0.062 l 0.672,0 c 0.707,0 1.203,0.05 1.484,0.156 0.289,0.101 0.555,0.285 0.797,0.547 0.238,0.269 0.476,0.691 0.719,1.265 z" /><path
         id="path88"
         style="fill:#000000;fill-opacity:1;fill-rule:nonzero;stroke:none"
         d="m 53.5,335.254 c 0.945,0 1.707,-0.367 2.281,-1.094 0.489,-0.617 0.735,-1.32 0.735,-2.109 0,-0.563 -0.137,-1.133 -0.407,-1.703 -0.273,-0.575 -0.64,-1.008 -1.109,-1.297 -0.469,-0.289 -0.996,-0.438 -1.578,-0.438 -0.938,0 -1.688,0.375 -2.25,1.125 -0.469,0.633 -0.703,1.344 -0.703,2.125 0,0.582 0.14,1.157 0.422,1.719 0.289,0.57 0.664,0.992 1.125,1.266 0.468,0.269 0.961,0.406 1.484,0.406 z m -0.219,-0.453 c -0.242,0 -0.484,-0.074 -0.734,-0.219 -0.242,-0.137 -0.434,-0.387 -0.578,-0.75 -0.149,-0.367 -0.219,-0.828 -0.219,-1.391 0,-0.906 0.176,-1.695 0.531,-2.359 0.364,-0.656 0.844,-0.984 1.438,-0.984 0.437,0 0.801,0.179 1.094,0.547 0.289,0.363 0.437,0.988 0.437,1.875 0,1.113 -0.242,1.988 -0.719,2.625 -0.324,0.437 -0.742,0.656 -1.25,0.656 z" /><path
         id="path90"
         style="fill:#000000;fill-opacity:1;fill-rule:nonzero;stroke:none"
         d="m 60.984,329.707 c -0.648,-0.5 -1.046,-0.789 -1.203,-0.859 -0.25,-0.114 -0.515,-0.172 -0.797,-0.172 -0.429,0 -0.781,0.144 -1.062,0.437 -0.281,0.301 -0.422,0.692 -0.422,1.172 0,0.301 0.066,0.567 0.203,0.797 0.188,0.301 0.508,0.586 0.969,0.859 0.469,0.282 1.238,0.618 2.312,1.016 l 0,0.234 c 0,0.625 -0.101,1.051 -0.296,1.282 -0.2,0.238 -0.485,0.359 -0.86,0.359 -0.293,0 -0.523,-0.078 -0.687,-0.234 -0.18,-0.157 -0.266,-0.336 -0.266,-0.532 l 0.016,-0.39 c 0,-0.219 -0.055,-0.387 -0.157,-0.5 -0.105,-0.106 -0.246,-0.156 -0.421,-0.156 -0.168,0 -0.309,0.054 -0.422,0.171 -0.106,0.114 -0.157,0.274 -0.157,0.485 0,0.394 0.196,0.754 0.594,1.078 0.406,0.332 0.973,0.5 1.703,0.5 0.551,0 1.004,-0.094 1.36,-0.281 0.269,-0.149 0.468,-0.371 0.593,-0.672 0.082,-0.199 0.125,-0.602 0.125,-1.203 l 0,-2.125 c 0,-0.594 0.008,-0.961 0.032,-1.094 0.031,-0.137 0.07,-0.231 0.125,-0.281 0.05,-0.043 0.109,-0.063 0.172,-0.063 0.07,0 0.14,0.016 0.203,0.047 0.093,0.063 0.273,0.227 0.547,0.5 l 0,-0.375 c -0.512,-0.687 -1,-1.031 -1.469,-1.031 -0.219,0 -0.399,0.078 -0.531,0.234 -0.125,0.156 -0.196,0.422 -0.204,0.797 z m 0,0.438 0,2.39 c -0.687,-0.273 -1.132,-0.465 -1.328,-0.578 -0.367,-0.211 -0.625,-0.422 -0.781,-0.641 -0.156,-0.218 -0.234,-0.453 -0.234,-0.703 0,-0.336 0.097,-0.609 0.297,-0.828 0.195,-0.219 0.425,-0.328 0.687,-0.328 0.344,0 0.797,0.227 1.359,0.688 z" /><path
         id="path92"
         style="fill:#000000;fill-opacity:1;fill-rule:nonzero;stroke:none"
         d="m 68.066,329.504 c -0.304,-0.324 -0.601,-0.555 -0.89,-0.688 -0.293,-0.132 -0.61,-0.203 -0.953,-0.203 -0.68,0 -1.274,0.285 -1.782,0.86 -0.511,0.57 -0.765,1.304 -0.765,2.203 0,0.894 0.281,1.711 0.844,2.453 0.562,0.75 1.289,1.125 2.187,1.125 0.551,0 1.004,-0.18 1.359,-0.531 l 0,1.156 c 0,0.719 -0.015,1.156 -0.046,1.312 -0.032,0.164 -0.086,0.282 -0.157,0.344 -0.074,0.063 -0.168,0.094 -0.281,0.094 -0.117,0 -0.273,-0.039 -0.469,-0.109 l -0.093,0.234 1.875,0.766 0.296,0 0,-7.235 c 0,-0.742 0.016,-1.195 0.047,-1.359 0.039,-0.156 0.098,-0.266 0.172,-0.328 0.07,-0.063 0.16,-0.094 0.266,-0.094 0.125,0 0.285,0.039 0.484,0.125 l 0.078,-0.25 -1.859,-0.766 -0.313,0 0,0.891 z m 0,0.484 0,3.219 c -0.031,0.313 -0.117,0.594 -0.25,0.844 -0.136,0.258 -0.32,0.453 -0.546,0.578 -0.219,0.133 -0.438,0.203 -0.657,0.203 -0.398,0 -0.75,-0.184 -1.062,-0.547 -0.418,-0.469 -0.625,-1.164 -0.625,-2.078 0,-0.918 0.195,-1.621 0.594,-2.109 0.406,-0.493 0.851,-0.735 1.343,-0.735 0.414,0 0.817,0.207 1.203,0.625 z" /><path
         id="path94"
         style="fill:#000000;fill-opacity:1;fill-rule:nonzero;stroke:none"
         d="m 83.176,328.801 -2.485,0 -3.14,4.328 c -0.231,0 -0.418,0 -0.563,0 -0.062,0 -0.133,0 -0.203,0 -0.062,0 -0.133,0 -0.203,0 l 0,-2.688 c 0,-0.586 0.063,-0.949 0.188,-1.093 0.175,-0.2 0.437,-0.297 0.781,-0.297 l 0.375,0 0,-0.25 -3.985,0 0,0.25 0.36,0 c 0.383,0 0.66,0.129 0.828,0.39 0.101,0.133 0.156,0.469 0.156,1 l 0,5.985 c 0,0.582 -0.07,0.945 -0.203,1.094 -0.18,0.195 -0.437,0.296 -0.781,0.296 l -0.36,0 0,0.25 3.375,0 c 0.989,0 1.719,-0.074 2.188,-0.218 0.469,-0.137 0.863,-0.399 1.187,-0.782 0.321,-0.386 0.485,-0.843 0.485,-1.375 0,-0.574 -0.188,-1.074 -0.563,-1.5 -0.367,-0.418 -0.937,-0.711 -1.718,-0.875 l 1.921,-2.656 c 0.438,-0.617 0.813,-1.027 1.125,-1.234 0.313,-0.199 0.723,-0.324 1.235,-0.375 l 0,-0.25 z m -6.594,4.765 c 0.094,0 0.172,0 0.234,0 0.063,0 0.114,0 0.157,0 0.882,0 1.55,0.188 2,0.563 0.445,0.383 0.672,0.875 0.672,1.469 0,0.57 -0.184,1.039 -0.547,1.406 -0.368,0.363 -0.844,0.547 -1.438,0.547 -0.262,0 -0.621,-0.043 -1.078,-0.125 l 0,-3.86 z" /><path
         id="path96"
         style="fill:#000000;fill-opacity:1;fill-rule:nonzero;stroke:none"
         d="m 83.559,333.379 c 0,1.062 0.16,1.973 0.484,2.734 0.32,0.758 0.742,1.328 1.266,1.703 0.414,0.301 0.843,0.454 1.281,0.454 0.707,0 1.344,-0.368 1.906,-1.094 0.707,-0.899 1.063,-2.117 1.063,-3.656 0,-1.075 -0.157,-1.985 -0.469,-2.735 -0.305,-0.75 -0.699,-1.297 -1.188,-1.64 -0.48,-0.344 -0.945,-0.516 -1.39,-0.516 -0.875,0 -1.61,0.523 -2.203,1.578 -0.5,0.875 -0.75,1.93 -0.75,3.172 z m 1.343,-0.172 c 0,-1.273 0.157,-2.312 0.469,-3.125 0.258,-0.68 0.649,-1.016 1.172,-1.016 0.238,0 0.488,0.11 0.75,0.329 0.27,0.226 0.473,0.597 0.609,1.109 0.207,0.789 0.313,1.898 0.313,3.328 0,1.051 -0.11,1.93 -0.328,2.641 -0.157,0.519 -0.367,0.89 -0.625,1.109 -0.188,0.156 -0.418,0.234 -0.688,0.234 -0.304,0 -0.578,-0.14 -0.828,-0.421 -0.324,-0.375 -0.547,-0.969 -0.672,-1.782 -0.117,-0.812 -0.172,-1.617 -0.172,-2.406 z" /><path
         id="path98"
         style="fill:#000000;fill-opacity:1;fill-rule:nonzero;stroke:none"
         d="m 94.059,333.379 c 0,1.062 0.16,1.973 0.484,2.734 0.32,0.758 0.742,1.328 1.266,1.703 0.414,0.301 0.843,0.454 1.281,0.454 0.707,0 1.344,-0.368 1.906,-1.094 0.707,-0.899 1.063,-2.117 1.063,-3.656 0,-1.075 -0.157,-1.985 -0.469,-2.735 -0.305,-0.75 -0.699,-1.297 -1.188,-1.64 -0.48,-0.344 -0.945,-0.516 -1.39,-0.516 -0.875,0 -1.61,0.523 -2.203,1.578 -0.5,0.875 -0.75,1.93 -0.75,3.172 z m 1.343,-0.172 c 0,-1.273 0.157,-2.312 0.469,-3.125 0.258,-0.68 0.649,-1.016 1.172,-1.016 0.238,0 0.488,0.11 0.75,0.329 0.27,0.226 0.473,0.597 0.609,1.109 0.207,0.789 0.313,1.898 0.313,3.328 0,1.051 -0.11,1.93 -0.328,2.641 -0.157,0.519 -0.367,0.89 -0.625,1.109 -0.188,0.156 -0.418,0.234 -0.688,0.234 -0.304,0 -0.578,-0.14 -0.828,-0.421 -0.324,-0.375 -0.547,-0.969 -0.672,-1.782 -0.117,-0.812 -0.172,-1.617 -0.172,-2.406 z" /><path
         id="path100"
         style="fill:none;stroke:#000000;stroke-width:1;stroke-linecap:butt;stroke-linejoin:miter;stroke-miterlimit:4;stroke-dasharray:none;stroke-opacity:1"
         d="m 56,387.723 0,-26.118" /><path
         id="path102"
         style="fill:#000000;fill-opacity:1;fill-rule:nonzero;stroke:#000000;stroke-width:1;stroke-linecap:butt;stroke-linejoin:miter;stroke-miterlimit:4;stroke-dasharray:none;stroke-opacity:1"
         d="m 59.5,361.438 -3.5,-10 -3.5,10 7,0 z" /><path
         id="path104"
         style="fill:none;stroke:#000000;stroke-width:1;stroke-linecap:butt;stroke-linejoin:miter;stroke-miterlimit:4;stroke-dasharray:none;stroke-opacity:1"
         d="m 202.184,237 c 0,-21.121 -17.094,-38.246 -38.184,-38.246 -21.09,0 -38.184,17.125 -38.184,38.246 0,21.121 17.094,38.246 38.184,38.246 21.09,0 38.184,-17.125 38.184,-38.246 z" /><path
         id="path106"
         style="fill:#000000;fill-opacity:1;fill-rule:nonzero;stroke:none"
         d="m 150.758,235.91 -3.594,0 -0.625,-1.469 c -0.156,-0.367 -0.234,-0.636 -0.234,-0.812 0,-0.137 0.066,-0.262 0.203,-0.375 0.133,-0.106 0.426,-0.172 0.875,-0.203 l 0,-0.25 -2.922,0 0,0.25 c 0.383,0.07 0.633,0.16 0.75,0.265 0.227,0.219 0.488,0.664 0.781,1.344 l 3.25,7.625 0.25,0 3.219,-7.719 c 0.258,-0.617 0.492,-1.015 0.703,-1.203 0.219,-0.187 0.516,-0.293 0.891,-0.312 l 0,-0.25 -3.657,0 0,0.25 c 0.364,0.019 0.61,0.082 0.735,0.187 0.133,0.102 0.203,0.235 0.203,0.391 0,0.195 -0.09,0.508 -0.266,0.937 l -0.562,1.344 z m -0.188,0.5 -1.578,3.75 -1.609,-3.75 3.187,0 z" /><path
         id="path108"
         style="fill:#000000;fill-opacity:1;fill-rule:nonzero;stroke:none"
         d="m 159.328,233.504 c -0.305,-0.324 -0.601,-0.555 -0.89,-0.688 -0.293,-0.132 -0.61,-0.203 -0.954,-0.203 -0.679,0 -1.273,0.285 -1.781,0.86 -0.512,0.57 -0.765,1.304 -0.765,2.203 0,0.894 0.281,1.711 0.843,2.453 0.563,0.75 1.289,1.125 2.188,1.125 0.551,0 1.004,-0.18 1.359,-0.531 l 0,1.156 c 0,0.719 -0.015,1.156 -0.047,1.312 -0.031,0.164 -0.086,0.282 -0.156,0.344 -0.074,0.063 -0.168,0.094 -0.281,0.094 -0.117,0 -0.274,-0.039 -0.469,-0.109 l -0.094,0.234 1.875,0.766 0.297,0 0,-7.235 c 0,-0.742 0.016,-1.195 0.047,-1.359 0.039,-0.156 0.098,-0.266 0.172,-0.328 0.07,-0.063 0.16,-0.094 0.266,-0.094 0.125,0 0.285,0.039 0.484,0.125 l 0.078,-0.25 -1.859,-0.766 -0.313,0 0,0.891 z m 0,0.484 0,3.219 c -0.031,0.313 -0.117,0.594 -0.25,0.844 -0.137,0.258 -0.32,0.453 -0.547,0.578 -0.218,0.133 -0.437,0.203 -0.656,0.203 -0.398,0 -0.75,-0.184 -1.062,-0.547 -0.418,-0.469 -0.625,-1.164 -0.625,-2.078 0,-0.918 0.195,-1.621 0.593,-2.109 0.407,-0.493 0.852,-0.735 1.344,-0.735 0.414,0 0.816,0.207 1.203,0.625 z" /><path
         id="path110"
         style="fill:#000000;fill-opacity:1;fill-rule:nonzero;stroke:none"
         d="m 166.328,233.504 c -0.305,-0.324 -0.601,-0.555 -0.89,-0.688 -0.293,-0.132 -0.61,-0.203 -0.954,-0.203 -0.679,0 -1.273,0.285 -1.781,0.86 -0.512,0.57 -0.765,1.304 -0.765,2.203 0,0.894 0.281,1.711 0.843,2.453 0.563,0.75 1.289,1.125 2.188,1.125 0.551,0 1.004,-0.18 1.359,-0.531 l 0,1.156 c 0,0.719 -0.015,1.156 -0.047,1.312 -0.031,0.164 -0.086,0.282 -0.156,0.344 -0.074,0.063 -0.168,0.094 -0.281,0.094 -0.117,0 -0.274,-0.039 -0.469,-0.109 l -0.094,0.234 1.875,0.766 0.297,0 0,-7.235 c 0,-0.742 0.016,-1.195 0.047,-1.359 0.039,-0.156 0.098,-0.266 0.172,-0.328 0.07,-0.063 0.16,-0.094 0.266,-0.094 0.125,0 0.285,0.039 0.484,0.125 l 0.078,-0.25 -1.859,-0.766 -0.313,0 0,0.891 z m 0,0.484 0,3.219 c -0.031,0.313 -0.117,0.594 -0.25,0.844 -0.137,0.258 -0.32,0.453 -0.547,0.578 -0.218,0.133 -0.437,0.203 -0.656,0.203 -0.398,0 -0.75,-0.184 -1.062,-0.547 -0.418,-0.469 -0.625,-1.164 -0.625,-2.078 0,-0.918 0.195,-1.621 0.593,-2.109 0.407,-0.493 0.852,-0.735 1.344,-0.735 0.414,0 0.816,0.207 1.203,0.625 z" /><path
         id="path112"
         style="fill:#000000;fill-opacity:1;fill-rule:nonzero;stroke:none"
         d="m 170.734,239.254 0,-1.422 c 0.532,0.945 1.071,1.422 1.625,1.422 0.25,0 0.454,-0.078 0.61,-0.234 0.164,-0.157 0.25,-0.336 0.25,-0.532 0,-0.179 -0.063,-0.328 -0.188,-0.453 -0.117,-0.125 -0.25,-0.187 -0.406,-0.187 -0.168,0 -0.352,0.078 -0.547,0.234 -0.199,0.164 -0.344,0.25 -0.437,0.25 -0.086,0 -0.172,-0.047 -0.266,-0.141 -0.211,-0.187 -0.422,-0.496 -0.641,-0.921 l 0,-3 c 0,-0.356 0.047,-0.622 0.141,-0.797 0.051,-0.118 0.148,-0.215 0.297,-0.297 0.156,-0.086 0.375,-0.125 0.656,-0.125 l 0,-0.25 -3.203,0 0,0.25 c 0.32,0 0.563,0.047 0.719,0.14 0.113,0.071 0.191,0.192 0.234,0.36 0.02,0.07 0.031,0.289 0.031,0.656 l 0,2.422 c 0,0.726 -0.015,1.16 -0.046,1.297 -0.032,0.144 -0.09,0.25 -0.172,0.312 -0.075,0.063 -0.168,0.094 -0.282,0.094 -0.148,0 -0.308,-0.031 -0.484,-0.094 l -0.062,0.25 1.89,0.766 0.281,0 z" /><path
         id="path114"
         style="fill:#000000;fill-opacity:1;fill-rule:nonzero;stroke:none"
         d="m 178.289,241.16 2.25,1.11 0.234,0 0,-7.829 c 0,-0.523 0.02,-0.851 0.063,-0.984 0.039,-0.125 0.129,-0.227 0.266,-0.297 0.132,-0.062 0.414,-0.101 0.843,-0.109 l 0,-0.25 -3.484,0 0,0.25 c 0.437,0.008 0.719,0.047 0.844,0.109 0.125,0.07 0.211,0.16 0.265,0.266 0.051,0.113 0.078,0.453 0.078,1.015 l 0,5 c 0,0.676 -0.027,1.11 -0.078,1.297 -0.031,0.145 -0.09,0.25 -0.172,0.313 -0.085,0.07 -0.183,0.109 -0.296,0.109 -0.18,0 -0.414,-0.07 -0.704,-0.203 l -0.109,0.203 z" /><path
         id="path116"
         style="fill:none;stroke:#000000;stroke-width:1;stroke-linecap:butt;stroke-linejoin:miter;stroke-miterlimit:4;stroke-dasharray:none;stroke-opacity:1"
         d="M 135.625,211.305 C 119.551,197.313 99.535,179.895 83.594,166.016" /><path
         id="path118"
         style="fill:#000000;fill-opacity:1;fill-rule:nonzero;stroke:#000000;stroke-width:1;stroke-linecap:butt;stroke-linejoin:miter;stroke-miterlimit:4;stroke-dasharray:none;stroke-opacity:1"
         d="m 85.512,163.047 -9.84,-3.926 5.246,9.207 4.594,-5.281 z" /><path
         id="path120"
         style="fill:none;stroke:#000000;stroke-width:1;stroke-linecap:butt;stroke-linejoin:miter;stroke-miterlimit:4;stroke-dasharray:none;stroke-opacity:1"
         d="m 124.449,159 105.102,0 0,-36 -105.102,0 0,36 z" /><path
         id="path122"
         style="fill:#000000;fill-opacity:1;fill-rule:nonzero;stroke:none"
         d="m 138.871,138.582 -0.656,-1.781 -5.469,0 0,0.25 c 1.613,1.469 2.75,2.664 3.406,3.594 0.657,0.937 0.985,1.789 0.985,2.562 0,0.582 -0.184,1.063 -0.547,1.438 -0.356,0.382 -0.789,0.578 -1.297,0.578 -0.449,0 -0.855,-0.137 -1.219,-0.407 -0.367,-0.273 -0.633,-0.664 -0.797,-1.171 l -0.265,0 c 0.113,0.843 0.406,1.488 0.875,1.937 0.476,0.457 1.07,0.688 1.781,0.688 0.75,0 1.375,-0.247 1.875,-0.735 0.508,-0.48 0.766,-1.047 0.766,-1.703 0,-0.469 -0.11,-0.937 -0.329,-1.406 -0.343,-0.742 -0.89,-1.524 -1.64,-2.344 -1.137,-1.242 -1.852,-1.992 -2.141,-2.25 l 2.422,0 c 0.5,0 0.848,0.016 1.047,0.047 0.195,0.039 0.375,0.117 0.531,0.234 0.156,0.114 0.297,0.27 0.422,0.469 l 0.25,0 z" /><path
         id="path124"
         style="fill:#000000;fill-opacity:1;fill-rule:nonzero;stroke:none"
         d="m 139.949,141.379 c 0,1.062 0.16,1.973 0.485,2.734 0.32,0.758 0.742,1.328 1.265,1.703 0.414,0.301 0.844,0.454 1.281,0.454 0.708,0 1.344,-0.368 1.907,-1.094 0.707,-0.899 1.062,-2.117 1.062,-3.656 0,-1.075 -0.156,-1.985 -0.469,-2.735 -0.304,-0.75 -0.699,-1.297 -1.187,-1.64 -0.48,-0.344 -0.945,-0.516 -1.391,-0.516 -0.875,0 -1.609,0.523 -2.203,1.578 -0.5,0.875 -0.75,1.93 -0.75,3.172 z m 1.344,-0.172 c 0,-1.273 0.156,-2.312 0.469,-3.125 0.258,-0.68 0.648,-1.016 1.172,-1.016 0.238,0 0.488,0.11 0.75,0.329 0.269,0.226 0.472,0.597 0.609,1.109 0.207,0.789 0.312,1.898 0.312,3.328 0,1.051 -0.109,1.93 -0.328,2.641 -0.156,0.519 -0.367,0.89 -0.625,1.109 -0.187,0.156 -0.418,0.234 -0.687,0.234 -0.305,0 -0.578,-0.14 -0.828,-0.421 -0.324,-0.375 -0.547,-0.969 -0.672,-1.782 -0.117,-0.812 -0.172,-1.617 -0.172,-2.406 z" /><path
         id="path126"
         style="fill:none;stroke:#000000;stroke-width:1;stroke-linecap:butt;stroke-linejoin:miter;stroke-miterlimit:4;stroke-dasharray:none;stroke-opacity:1"
         d="m 154.449,123 0,36" /><path
         id="path128"
         style="fill:#000000;fill-opacity:1;fill-rule:nonzero;stroke:none"
         d="m 170.473,139.363 0.218,-0.047 -0.796,-2.515 -7.172,0 0,0.25 0.343,0 c 0.395,0 0.676,0.129 0.844,0.39 0.094,0.145 0.141,0.477 0.141,1 l 0,5.985 c 0,0.582 -0.063,0.945 -0.188,1.094 -0.179,0.195 -0.445,0.296 -0.797,0.296 l -0.343,0 0,0.25 4.203,0 0,-0.25 c -0.5,0.008 -0.852,-0.039 -1.047,-0.14 -0.199,-0.094 -0.336,-0.215 -0.406,-0.36 -0.075,-0.148 -0.11,-0.496 -0.11,-1.046 l 0,-5.829 c 0,-0.375 0.035,-0.632 0.11,-0.765 0.062,-0.106 0.144,-0.18 0.25,-0.219 0.113,-0.043 0.472,-0.062 1.078,-0.062 l 0.672,0 c 0.707,0 1.203,0.05 1.484,0.156 0.289,0.101 0.555,0.285 0.797,0.547 0.238,0.269 0.476,0.691 0.719,1.265 z" /><path
         id="path130"
         style="fill:#000000;fill-opacity:1;fill-rule:nonzero;stroke:none"
         d="m 174.5,143.254 c 0.945,0 1.707,-0.367 2.281,-1.094 0.489,-0.617 0.735,-1.32 0.735,-2.109 0,-0.563 -0.137,-1.133 -0.407,-1.703 -0.273,-0.575 -0.64,-1.008 -1.109,-1.297 -0.469,-0.289 -0.996,-0.438 -1.578,-0.438 -0.938,0 -1.688,0.375 -2.25,1.125 -0.469,0.633 -0.703,1.344 -0.703,2.125 0,0.582 0.14,1.157 0.422,1.719 0.289,0.57 0.664,0.992 1.125,1.266 0.468,0.269 0.961,0.406 1.484,0.406 z m -0.219,-0.453 c -0.242,0 -0.484,-0.074 -0.734,-0.219 -0.242,-0.137 -0.434,-0.387 -0.578,-0.75 -0.149,-0.367 -0.219,-0.828 -0.219,-1.391 0,-0.906 0.176,-1.695 0.531,-2.359 0.364,-0.656 0.844,-0.984 1.438,-0.984 0.437,0 0.801,0.179 1.094,0.547 0.289,0.363 0.437,0.988 0.437,1.875 0,1.113 -0.242,1.988 -0.719,2.625 -0.324,0.437 -0.742,0.656 -1.25,0.656 z" /><path
         id="path132"
         style="fill:#000000;fill-opacity:1;fill-rule:nonzero;stroke:none"
         d="m 181.984,137.707 c -0.648,-0.5 -1.046,-0.789 -1.203,-0.859 -0.25,-0.114 -0.515,-0.172 -0.797,-0.172 -0.429,0 -0.781,0.144 -1.062,0.437 -0.281,0.301 -0.422,0.692 -0.422,1.172 0,0.301 0.066,0.567 0.203,0.797 0.188,0.301 0.508,0.586 0.969,0.859 0.469,0.282 1.238,0.618 2.312,1.016 l 0,0.234 c 0,0.625 -0.101,1.051 -0.296,1.282 -0.2,0.238 -0.485,0.359 -0.86,0.359 -0.293,0 -0.523,-0.078 -0.687,-0.234 -0.18,-0.157 -0.266,-0.336 -0.266,-0.532 l 0.016,-0.39 c 0,-0.219 -0.055,-0.387 -0.157,-0.5 -0.105,-0.106 -0.246,-0.156 -0.421,-0.156 -0.168,0 -0.309,0.054 -0.422,0.171 -0.106,0.114 -0.157,0.274 -0.157,0.485 0,0.394 0.196,0.754 0.594,1.078 0.406,0.332 0.973,0.5 1.703,0.5 0.551,0 1.004,-0.094 1.36,-0.281 0.269,-0.149 0.468,-0.371 0.593,-0.672 0.082,-0.199 0.125,-0.602 0.125,-1.203 l 0,-2.125 c 0,-0.594 0.008,-0.961 0.032,-1.094 0.031,-0.137 0.07,-0.231 0.125,-0.281 0.05,-0.043 0.109,-0.063 0.172,-0.063 0.07,0 0.14,0.016 0.203,0.047 0.093,0.063 0.273,0.227 0.547,0.5 l 0,-0.375 c -0.512,-0.687 -1,-1.031 -1.469,-1.031 -0.219,0 -0.399,0.078 -0.531,0.234 -0.125,0.156 -0.196,0.422 -0.204,0.797 z m 0,0.438 0,2.39 c -0.687,-0.273 -1.132,-0.465 -1.328,-0.578 -0.367,-0.211 -0.625,-0.422 -0.781,-0.641 -0.156,-0.218 -0.234,-0.453 -0.234,-0.703 0,-0.336 0.097,-0.609 0.297,-0.828 0.195,-0.219 0.425,-0.328 0.687,-0.328 0.344,0 0.797,0.227 1.359,0.688 z" /><path
         id="path134"
         style="fill:#000000;fill-opacity:1;fill-rule:nonzero;stroke:none"
         d="m 189.066,137.504 c -0.304,-0.324 -0.601,-0.555 -0.89,-0.688 -0.293,-0.132 -0.61,-0.203 -0.953,-0.203 -0.68,0 -1.274,0.285 -1.782,0.86 -0.511,0.57 -0.765,1.304 -0.765,2.203 0,0.894 0.281,1.711 0.844,2.453 0.562,0.75 1.289,1.125 2.187,1.125 0.551,0 1.004,-0.18 1.359,-0.531 l 0,1.156 c 0,0.719 -0.015,1.156 -0.046,1.312 -0.032,0.164 -0.086,0.282 -0.157,0.344 -0.074,0.063 -0.168,0.094 -0.281,0.094 -0.117,0 -0.273,-0.039 -0.469,-0.109 l -0.093,0.234 1.875,0.766 0.296,0 0,-7.235 c 0,-0.742 0.016,-1.195 0.047,-1.359 0.039,-0.156 0.098,-0.266 0.172,-0.328 0.07,-0.063 0.16,-0.094 0.266,-0.094 0.125,0 0.285,0.039 0.484,0.125 l 0.078,-0.25 -1.859,-0.766 -0.313,0 0,0.891 z m 0,0.484 0,3.219 c -0.031,0.313 -0.117,0.594 -0.25,0.844 -0.136,0.258 -0.32,0.453 -0.546,0.578 -0.219,0.133 -0.438,0.203 -0.657,0.203 -0.398,0 -0.75,-0.184 -1.062,-0.547 -0.418,-0.469 -0.625,-1.164 -0.625,-2.078 0,-0.918 0.195,-1.621 0.594,-2.109 0.406,-0.493 0.851,-0.735 1.343,-0.735 0.414,0 0.817,0.207 1.203,0.625 z" /><path
         id="path136"
         style="fill:#000000;fill-opacity:1;fill-rule:nonzero;stroke:none"
         d="m 204.176,136.801 -2.485,0 -3.14,4.328 c -0.231,0 -0.418,0 -0.563,0 -0.062,0 -0.133,0 -0.203,0 -0.062,0 -0.133,0 -0.203,0 l 0,-2.688 c 0,-0.586 0.063,-0.949 0.188,-1.093 0.175,-0.2 0.437,-0.297 0.781,-0.297 l 0.375,0 0,-0.25 -3.985,0 0,0.25 0.36,0 c 0.383,0 0.66,0.129 0.828,0.39 0.101,0.133 0.156,0.469 0.156,1 l 0,5.985 c 0,0.582 -0.07,0.945 -0.203,1.094 -0.18,0.195 -0.437,0.296 -0.781,0.296 l -0.36,0 0,0.25 3.375,0 c 0.989,0 1.719,-0.074 2.188,-0.218 0.469,-0.137 0.863,-0.399 1.187,-0.782 0.321,-0.386 0.485,-0.843 0.485,-1.375 0,-0.574 -0.188,-1.074 -0.563,-1.5 -0.367,-0.418 -0.937,-0.711 -1.718,-0.875 l 1.921,-2.656 c 0.438,-0.617 0.813,-1.027 1.125,-1.234 0.313,-0.199 0.723,-0.324 1.235,-0.375 l 0,-0.25 z m -6.594,4.765 c 0.094,0 0.172,0 0.234,0 0.063,0 0.114,0 0.157,0 0.882,0 1.55,0.188 2,0.563 0.445,0.383 0.672,0.875 0.672,1.469 0,0.57 -0.184,1.039 -0.547,1.406 -0.368,0.363 -0.844,0.547 -1.438,0.547 -0.262,0 -0.621,-0.043 -1.078,-0.125 l 0,-3.86 z" /><path
         id="path138"
         style="fill:#000000;fill-opacity:1;fill-rule:nonzero;stroke:none"
         d="m 205.699,145.16 2.25,1.11 0.235,0 0,-7.829 c 0,-0.523 0.019,-0.851 0.062,-0.984 0.039,-0.125 0.129,-0.227 0.266,-0.297 0.133,-0.062 0.414,-0.101 0.843,-0.109 l 0,-0.25 -3.484,0 0,0.25 c 0.438,0.008 0.719,0.047 0.844,0.109 0.125,0.07 0.211,0.16 0.265,0.266 0.051,0.113 0.079,0.453 0.079,1.015 l 0,5 c 0,0.676 -0.028,1.11 -0.079,1.297 -0.031,0.145 -0.089,0.25 -0.171,0.313 -0.086,0.07 -0.184,0.109 -0.297,0.109 -0.18,0 -0.414,-0.07 -0.703,-0.203 l -0.11,0.203 z" /><path
         id="path140"
         style="fill:#000000;fill-opacity:1;fill-rule:nonzero;stroke:none"
         d="m 216.199,145.16 2.25,1.11 0.235,0 0,-7.829 c 0,-0.523 0.019,-0.851 0.062,-0.984 0.039,-0.125 0.129,-0.227 0.266,-0.297 0.133,-0.062 0.414,-0.101 0.843,-0.109 l 0,-0.25 -3.484,0 0,0.25 c 0.438,0.008 0.719,0.047 0.844,0.109 0.125,0.07 0.211,0.16 0.265,0.266 0.051,0.113 0.079,0.453 0.079,1.015 l 0,5 c 0,0.676 -0.028,1.11 -0.079,1.297 -0.031,0.145 -0.089,0.25 -0.171,0.313 -0.086,0.07 -0.184,0.109 -0.297,0.109 -0.18,0 -0.414,-0.07 -0.703,-0.203 l -0.11,0.203 z" /><path
         id="path142"
         style="fill:none;stroke:#000000;stroke-width:1;stroke-linecap:butt;stroke-linejoin:miter;stroke-miterlimit:4;stroke-dasharray:none;stroke-opacity:1"
         d="m 169.102,199.117 c 1.382,-10.015 2.859,-20.672 4.152,-30.039" /><path
         id="path144"
         style="fill:#000000;fill-opacity:1;fill-rule:nonzero;stroke:#000000;stroke-width:1;stroke-linecap:butt;stroke-linejoin:miter;stroke-miterlimit:4;stroke-dasharray:none;stroke-opacity:1"
         d="m 176.723,169.547 -2.094,-10.387 -4.84,9.426 6.934,0.961 z" /><path
         id="path146"
         style="fill:none;stroke:#000000;stroke-width:1;stroke-linecap:butt;stroke-linejoin:miter;stroke-miterlimit:4;stroke-dasharray:none;stroke-opacity:1"
         d="m 56,314.758 0,-27.219" /><path
         id="path148"
         style="fill:#000000;fill-opacity:1;fill-rule:nonzero;stroke:#000000;stroke-width:1;stroke-linecap:butt;stroke-linejoin:miter;stroke-miterlimit:4;stroke-dasharray:none;stroke-opacity:1"
         d="m 59.5,287.359 -3.5,-10 -3.5,10 7,0 z" /><path
         id="path150"
         style="fill:none;stroke:#000000;stroke-width:1;stroke-linecap:butt;stroke-linejoin:miter;stroke-miterlimit:4;stroke-dasharray:none;stroke-opacity:1"
         d="m 61.383,159.41 c 0.851,7.891 1.305,17.653 1.363,27.539" /><path
         id="path152"
         style="fill:#000000;fill-opacity:1;fill-rule:nonzero;stroke:#000000;stroke-width:1;stroke-linecap:butt;stroke-linejoin:miter;stroke-miterlimit:4;stroke-dasharray:none;stroke-opacity:1"
         d="m 59.242,187.195 3.414,10.028 3.586,-9.969 -7,-0.059 z" /><path
         id="path154"
         style="fill:none;stroke:#000000;stroke-width:1;stroke-linecap:butt;stroke-linejoin:miter;stroke-miterlimit:4;stroke-dasharray:none;stroke-opacity:1"
         d="m 177,122.758 0,-27.219" /><path
         id="path156"
         style="fill:#000000;fill-opacity:1;fill-rule:nonzero;stroke:#000000;stroke-width:1;stroke-linecap:butt;stroke-linejoin:miter;stroke-miterlimit:4;stroke-dasharray:none;stroke-opacity:1"
         d="m 180.5,95.359 -3.5,-10 -3.5,10 7,0 z" /></g></g></svg>