<?xml version="1.0" encoding="UTF-8" standalone="no"?>
<!-- Created with Inkscape (http://www.inkscape.org/) -->

<svg
   xmlns:dc="http://purl.org/dc/elements/1.1/"
   xmlns:cc="http://creativecommons.org/ns#"
   xmlns:rdf="http://www.w3.org/1999/02/22-rdf-syntax-ns#"
   xmlns:svg="http://www.w3.org/2000/svg"
   xmlns="http://www.w3.org/2000/svg"
   xmlns:sodipodi="http://sodipodi.sourceforge.net/DTD/sodipodi-0.dtd"
   xmlns:inkscape="http://www.inkscape.org/namespaces/inkscape"
   id="svg2"
   version="1.1"
   inkscape:version="0.91 r13725"
   xml:space="preserve"
   width="122.5"
   height="333.85251"
   viewBox="0 0 122.5 333.85251"
   sodipodi:docname="load.svg"><metadata
     id="metadata8"><rdf:RDF><cc:Work
         rdf:about=""><dc:format>image/svg+xml</dc:format><dc:type
           rdf:resource="http://purl.org/dc/dcmitype/StillImage" /><dc:title></dc:title></cc:Work></rdf:RDF></metadata><defs
     id="defs6"><clipPath
       clipPathUnits="userSpaceOnUse"
       id="clipPath18"><path
         d="m 36,319 377,0 0,-283.387 -377,0 L 36,319 Z"
         id="path20"
         inkscape:connector-curvature="0" /></clipPath></defs><sodipodi:namedview
     pagecolor="#ffffff"
     bordercolor="#666666"
     borderopacity="1"
     objecttolerance="10"
     gridtolerance="10"
     guidetolerance="10"
     inkscape:pageopacity="0"
     inkscape:pageshadow="2"
     inkscape:window-width="1920"
     inkscape:window-height="1027"
     id="namedview4"
     showgrid="false"
     fit-margin-top="0"
     fit-margin-left="0"
     fit-margin-right="0"
     fit-margin-bottom="0"
     inkscape:zoom="1.5042452"
     inkscape:cx="72.913692"
     inkscape:cy="138.55872"
     inkscape:window-x="0"
     inkscape:window-y="27"
     inkscape:window-maximized="1"
     inkscape:current-layer="g16" /><g
     id="g10"
     inkscape:groupmode="layer"
     inkscape:label="loadJumpAdd"
     transform="matrix(1.25,0,0,-1.25,-49.375,392.24625)"><g
       id="g12" /><g
       id="g14"><g
         id="g16"
         clip-path="url(#clipPath18)"><path
           d="m 126.395,85.109 c 0,-20.925 -16.965,-37.894 -37.895,-37.894 -20.93,0 -37.895,16.969 -37.895,37.894 0,20.93 16.965,37.895 37.895,37.895 20.93,0 37.895,-16.965 37.895,-37.895"
           style="fill:none;stroke:#000000;stroke-width:1;stroke-linecap:butt;stroke-linejoin:round;stroke-miterlimit:10;stroke-dasharray:none;stroke-opacity:1"
           id="path24"
           inkscape:connector-curvature="0" /><text
           transform="matrix(1,0,0,-1,67.5,81.410156)"
           style="font-variant:normal;font-size:14.00024414px;font-family:'Nimbus Roman No9 L';-inkscape-font-specification:NimbusRomNo9L-Regu;writing-mode:lr-tb;fill:#000000;fill-opacity:1;fill-rule:nonzero;stroke:none"
           id="text26"><tspan
             x="0 9.0021572 14.994262 21.75638 25.508444 34.496601"
             y="0"
             sodipodi:role="line"
             id="tspan28">Reg R0</tspan></text>
<path
           d="m 124.496,277.305 c 0,-19.883 -16.117,-35.996 -35.996,-35.996 -19.879,0 -35.996,16.113 -35.996,35.996 0,19.879 16.117,35.992 35.996,35.992 19.879,0 35.996,-16.113 35.996,-35.992"
           style="fill:none;stroke:#000000;stroke-width:1;stroke-linecap:butt;stroke-linejoin:round;stroke-miterlimit:10;stroke-dasharray:none;stroke-opacity:1"
           id="path52"
           inkscape:connector-curvature="0" /><text
           transform="matrix(1,0,0,-1,69,273.60156)"
           style="font-variant:normal;font-size:14.00024414px;font-family:'Nimbus Roman No9 L';-inkscape-font-specification:NimbusRomNo9L-Regu;writing-mode:lr-tb;fill:#000000;fill-opacity:1;fill-rule:nonzero;stroke:none"
           id="text54"><tspan
             x="0 9.7441702 16.506289 23.254406 27.748484 31.500549"
             y="0"
             sodipodi:role="line"
             id="tspan56">Addr 0</tspan></text>
<path
           d="m 40,203.105 97,0 0,-36 -97,0 0,36 z"
           style="fill:none;stroke:#000000;stroke-width:1;stroke-linecap:butt;stroke-linejoin:round;stroke-miterlimit:10;stroke-dasharray:none;stroke-opacity:1"
           id="path58"
           inkscape:connector-curvature="0" /><text
           transform="scale(1,-1)"
           style="font-variant:normal;font-size:14.00024414px;font-family:'Nimbus Roman No9 L';-inkscape-font-specification:NimbusRomNo9L-Regu;writing-mode:lr-tb;fill:#000000;fill-opacity:1;fill-rule:nonzero;stroke:none"
           id="text66"
           x="59.582497"
           y="-181.40625"><tspan
             x="59.582497 67.828636 74.576759 80.582863 87.330978 91.083046 100.0852 106.83332 110.58538"
             y="-181.40625"
             sodipodi:role="line"
             id="tspan68">Load R0 0</tspan></text>
<path
           d="m 88.5,241.43 c 0,-9.305 0,-19.219 0,-28.051"
           style="fill:none;stroke:#000000;stroke-width:1;stroke-linecap:butt;stroke-linejoin:round;stroke-miterlimit:10;stroke-dasharray:none;stroke-opacity:1"
           id="path70"
           inkscape:connector-curvature="0" /><path
           d="m 92,213.262 -3.5,-10 -3.5,10 7,0 z"
           style="fill:#000000;fill-opacity:1;fill-rule:nonzero;stroke:#000000;stroke-width:1;stroke-linecap:butt;stroke-linejoin:round;stroke-miterlimit:10;stroke-dasharray:none;stroke-opacity:1"
           id="path72"
           inkscape:connector-curvature="0" /><path
           d="m 88.5,167.035 c 0,-9.508 0,-21.863 0,-34.043"
           style="fill:none;stroke:#000000;stroke-width:1;stroke-linecap:butt;stroke-linejoin:round;stroke-miterlimit:10;stroke-dasharray:none;stroke-opacity:1"
           id="path112"
           inkscape:connector-curvature="0" /><path
           d="m 92,132.871 -3.5,-10 -3.5,10 7,0 z"
           style="fill:#000000;fill-opacity:1;fill-rule:nonzero;stroke:#000000;stroke-width:1;stroke-linecap:butt;stroke-linejoin:round;stroke-miterlimit:10;stroke-dasharray:none;stroke-opacity:1"
           id="path114"
           inkscape:connector-curvature="0" /></g></g></g></svg>