<?xml version="1.0" encoding="UTF-8" standalone="no"?>
<!-- Created with Inkscape (http://www.inkscape.org/) -->

<svg
   xmlns:dc="http://purl.org/dc/elements/1.1/"
   xmlns:cc="http://creativecommons.org/ns#"
   xmlns:rdf="http://www.w3.org/1999/02/22-rdf-syntax-ns#"
   xmlns:svg="http://www.w3.org/2000/svg"
   xmlns="http://www.w3.org/2000/svg"
   xmlns:sodipodi="http://sodipodi.sourceforge.net/DTD/sodipodi-0.dtd"
   xmlns:inkscape="http://www.inkscape.org/namespaces/inkscape"
   id="svg2"
   version="1.1"
   inkscape:version="0.91 r13725"
   xml:space="preserve"
   width="341.30118"
   height="249.49692"
   viewBox="0 0 341.30118 249.49692"
   sodipodi:docname="ataed-scenario-turn.svg"><metadata
     id="metadata8"><rdf:RDF><cc:Work
         rdf:about=""><dc:format>image/svg+xml</dc:format><dc:type
           rdf:resource="http://purl.org/dc/dcmitype/StillImage" /><dc:title></dc:title></cc:Work></rdf:RDF></metadata><defs
     id="defs6"><clipPath
       clipPathUnits="userSpaceOnUse"
       id="clipPath84"><path
         d="m 265,4 9,0 0,14 -9,0 0,-14 z"
         id="path86"
         inkscape:connector-curvature="0" /></clipPath></defs><sodipodi:namedview
     pagecolor="#ffffff"
     bordercolor="#666666"
     borderopacity="1"
     objecttolerance="10"
     gridtolerance="10"
     guidetolerance="10"
     inkscape:pageopacity="0"
     inkscape:pageshadow="2"
     inkscape:window-width="782"
     inkscape:window-height="480"
     id="namedview4"
     showgrid="false"
     inkscape:zoom="0.94590347"
     inkscape:cx="170.65059"
     inkscape:cy="124.74846"
     inkscape:window-x="0"
     inkscape:window-y="27"
     inkscape:window-maximized="0"
     inkscape:current-layer="g10" /><g
     id="g10"
     inkscape:groupmode="layer"
     inkscape:label="ataed-scenario-turn"
     transform="matrix(1.25,0,0,-1.25,0,249.49692)"><g
       id="g12"><path
         d="m 77.863,39.832 c 0,-9.941 -8.058,-18 -18,-18 -9.941,0 -18,8.059 -18,18 0,9.937 8.059,18 18,18 9.942,0 18,-8.063 18,-18 z"
         style="fill:#ffffff;fill-opacity:1;fill-rule:nonzero;stroke:#000000;stroke-width:4;stroke-linecap:square;stroke-linejoin:miter;stroke-miterlimit:10;stroke-dasharray:none;stroke-opacity:1"
         id="path14"
         inkscape:connector-curvature="0" /><path
         d="m 13.699,4.101 0,0.618 -0.359,0 c -1.199,0 -1.481,0.14 -1.699,0.804 l -4.321,12.5 c -0.101,0.258 -0.14,0.395 -0.461,0.395 -0.32,0 -0.379,-0.117 -0.48,-0.395 L 2.238,6.062 C 1.879,5.039 1.078,4.738 0,4.719 L 0,4.101 2.039,4.16 4.34,4.101 l 0,0.618 c -1,0 -1.5,0.5 -1.5,1.019 0,0.063 0.019,0.262 0.039,0.301 l 0.922,2.621 4.937,0 1.063,-3.059 C 9.82,5.523 9.859,5.398 9.859,5.32 9.859,4.719 8.738,4.719 8.199,4.719 l 0,-0.618 C 8.918,4.16 10.32,4.16 11.078,4.16 l 2.621,-0.059 z m -5.179,5.18 -4.5,0 2.238,6.5 2.262,-6.5 z"
         style="fill:#000000;fill-opacity:1;fill-rule:nonzero;stroke:none"
         id="path16"
         inkscape:connector-curvature="0" /><path
         d="m 24.258,4.101 0,0.618 c -1.399,0 -1.559,0.14 -1.559,1.121 l 0,12.14 -2.879,-0.222 0,-0.614 c 1.399,0 1.559,-0.144 1.559,-1.121 l 0,-4.324 c -0.578,0.719 -1.441,1.242 -2.52,1.242 -2.359,0 -4.461,-1.961 -4.461,-4.543 0,-2.539 1.961,-4.519 4.243,-4.519 1.277,0 2.179,0.683 2.679,1.32 l 0,-1.32 2.938,0.222 z m -2.938,2.36 c 0,-0.36 0,-0.399 -0.222,-0.742 -0.598,-0.961 -1.5,-1.399 -2.36,-1.399 -0.898,0 -1.617,0.52 -2.097,1.281 -0.52,0.817 -0.582,1.961 -0.582,2.778 0,0.742 0.039,1.941 0.621,2.84 0.418,0.621 1.179,1.281 2.258,1.281 0.703,0 1.542,-0.301 2.16,-1.199 0.222,-0.34 0.222,-0.383 0.222,-0.739 l 0,-4.101 z"
         style="fill:#000000;fill-opacity:1;fill-rule:nonzero;stroke:none"
         id="path18"
         inkscape:connector-curvature="0" /><path
         d="m 28.34,3.101 0,9.84 -3.039,-0.222 0,-0.618 c 1.539,0 1.719,-0.14 1.719,-1.121 l 0,-7.918 c 0,-0.902 -0.18,-2.621 -1.461,-2.621 -0.098,0 -0.559,0 -1.079,0.258 0.301,0.082 0.7,0.363 0.7,0.902 0,0.52 -0.36,0.922 -0.922,0.922 C 23.699,2.523 23.34,2.121 23.34,1.601 23.34,0.562 24.461,0 25.598,0 c 1.5,0 2.742,1.281 2.742,3.101 z m 0,13.082 c 0,0.536 -0.461,1.055 -1.059,1.055 -0.683,0 -1.082,-0.555 -1.082,-1.055 0,-0.539 0.461,-1.062 1.059,-1.062 0.68,0 1.082,0.562 1.082,1.062 z"
         style="fill:#000000;fill-opacity:1;fill-rule:nonzero;stroke:none"
         id="path20"
         inkscape:connector-curvature="0" /><path
         d="m 41.738,4.101 0,0.618 c -1.398,0 -1.558,0.14 -1.558,1.121 l 0,7.101 -2.942,-0.222 0,-0.618 c 1.403,0 1.563,-0.14 1.563,-1.121 l 0,-3.562 c 0,-1.735 -0.961,-3.098 -2.422,-3.098 -1.68,0 -1.758,0.938 -1.758,1.981 l 0,6.64 -2.941,-0.222 0,-0.618 c 1.558,0 1.558,-0.062 1.558,-1.843 l 0,-3 c 0,-1.559 0,-3.379 3.043,-3.379 1.117,0 2,0.562 2.578,1.804 l 0,-1.804 2.879,0.222 z"
         style="fill:#000000;fill-opacity:1;fill-rule:nonzero;stroke:none"
         id="path22"
         inkscape:connector-curvature="0" /><path
         d="m 48.699,6.66 c 0,1.059 -0.601,1.66 -0.84,1.902 -0.66,0.637 -1.441,0.797 -2.281,0.961 -1.117,0.215 -2.457,0.477 -2.457,1.637 0,0.699 0.52,1.523 2.238,1.523 2.2,0 2.301,-1.804 2.34,-2.425 0.02,-0.18 0.239,-0.18 0.239,-0.18 0.261,0 0.261,0.105 0.261,0.484 l 0,2.016 c 0,0.34 0,0.484 -0.219,0.484 -0.101,0 -0.14,0 -0.402,-0.242 -0.058,-0.082 -0.258,-0.258 -0.34,-0.32 -0.758,0.562 -1.578,0.562 -1.879,0.562 -2.441,0 -3.199,-1.343 -3.199,-2.461 0,-0.703 0.32,-1.261 0.86,-1.703 0.64,-0.519 1.199,-0.64 2.64,-0.918 0.438,-0.082 2.078,-0.402 2.078,-1.836 0,-1.023 -0.699,-1.824 -2.258,-1.824 -1.679,0 -2.402,1.141 -2.781,2.84 C 42.641,7.418 42.621,7.5 42.418,7.5 42.16,7.5 42.16,7.359 42.16,7 l 0,-2.641 c 0,-0.336 0,-0.48 0.219,-0.48 0.101,0 0.121,0.019 0.5,0.402 0.039,0.039 0.039,0.078 0.402,0.457 0.879,-0.84 1.778,-0.859 2.199,-0.859 2.301,0 3.219,1.34 3.219,2.781 z"
         style="fill:#000000;fill-opacity:1;fill-rule:nonzero;stroke:none"
         id="path24"
         inkscape:connector-curvature="0" /><path
         d="m 55.359,6.578 0,1.141 -0.5,0 0,-1.098 c 0,-1.477 -0.601,-2.242 -1.339,-2.242 -1.34,0 -1.34,1.82 -1.34,2.16 l 0,5.562 2.859,0 0,0.618 -2.859,0 0,3.679 -0.5,0 c -0.02,-1.64 -0.621,-3.777 -2.582,-3.859 l 0,-0.438 1.703,0 0,-5.523 c 0,-2.457 1.859,-2.699 2.578,-2.699 1.422,0 1.98,1.422 1.98,2.699 z"
         style="fill:#000000;fill-opacity:1;fill-rule:nonzero;stroke:none"
         id="path26"
         inkscape:connector-curvature="0" /><path
         d="m 85.363,5.859 c 0,0.121 0,0.34 -0.261,0.34 -0.219,0 -0.219,-0.176 -0.239,-0.32 -0.121,-1.418 -0.82,-1.778 -1.32,-1.778 -0.981,0 -1.141,1.02 -1.422,2.879 l -0.258,1.598 c -0.363,1.281 -1.34,1.945 -2.441,2.32 1.941,0.481 3.5,1.703 3.5,3.262 0,1.918 -2.281,3.598 -5.219,3.598 l -6.281,0 0,-0.614 0.48,0 c 1.539,0 1.578,-0.226 1.578,-0.945 l 0,-10.539 c 0,-0.719 -0.039,-0.941 -1.578,-0.941 l -0.48,0 0,-0.618 c 0.719,0.059 2.14,0.059 2.918,0.059 0.781,0 2.203,0 2.922,-0.059 l 0,0.618 -0.481,0 c -1.539,0 -1.578,0.222 -1.578,0.941 l 0,5.059 2.297,0 c 0.32,0 1.16,0 1.863,-0.68 0.758,-0.719 0.758,-1.34 0.758,-2.68 0,-1.297 0,-2.101 0.82,-2.859 0.821,-0.719 1.922,-0.84 2.52,-0.84 1.562,0 1.902,1.641 1.902,2.199 z m -4.5,8.301 c 0,-1.379 -0.48,-3 -3.441,-3 l -2.219,0 0,5.18 c 0,0.461 0,0.699 0.438,0.761 0.199,0.043 0.781,0.043 1.179,0.043 1.801,0 4.043,-0.082 4.043,-2.984 z"
         style="fill:#000000;fill-opacity:1;fill-rule:nonzero;stroke:none"
         id="path28"
         inkscape:connector-curvature="0" /><path
         d="m 93.941,10.5 c 0,1.601 -0.101,3.199 -0.8,4.683 -0.918,1.918 -2.559,2.235 -3.399,2.235 -1.199,0 -2.66,-0.52 -3.48,-2.379 -0.641,-1.379 -0.739,-2.938 -0.739,-4.539 0,-1.5 0.079,-3.301 0.899,-4.817 0.859,-1.621 2.32,-2.023 3.301,-2.023 1.078,0 2.597,0.418 3.48,2.32 0.637,1.379 0.738,2.938 0.738,4.52 z m -1.66,0.238 c 0,-1.5 0,-2.859 -0.219,-4.137 -0.3,-1.902 -1.441,-2.5 -2.339,-2.5 -0.782,0 -1.961,0.5 -2.321,2.422 -0.222,1.196 -0.222,3.039 -0.222,4.215 0,1.285 0,2.602 0.16,3.68 0.383,2.383 1.883,2.562 2.383,2.562 0.66,0 1.98,-0.359 2.359,-2.336 0.199,-1.121 0.199,-2.644 0.199,-3.906 z"
         style="fill:#000000;fill-opacity:1;fill-rule:nonzero;stroke:none"
         id="path30"
         inkscape:connector-curvature="0" /><path
         d="m 233.363,39.832 c 0,-9.941 -8.058,-18 -18,-18 -9.937,0 -18,8.059 -18,18 0,9.937 8.063,18 18,18 9.942,0 18,-8.063 18,-18 z"
         style="fill:#ffffff;fill-opacity:1;fill-rule:nonzero;stroke:#000000;stroke-width:4;stroke-linecap:square;stroke-linejoin:miter;stroke-miterlimit:10;stroke-dasharray:none;stroke-opacity:1"
         id="path32"
         inkscape:connector-curvature="0" /><path
         d="m 170.047,4.101 0,0.618 -0.359,0 c -1.2,0 -1.481,0.14 -1.7,0.804 l -4.32,12.5 c -0.102,0.258 -0.141,0.395 -0.461,0.395 -0.32,0 -0.379,-0.117 -0.48,-0.395 L 158.59,6.062 c -0.363,-1.023 -1.16,-1.324 -2.242,-1.343 l 0,-0.618 2.039,0.059 2.301,-0.059 0,0.618 c -1,0 -1.5,0.5 -1.5,1.019 0,0.063 0.019,0.262 0.039,0.301 l 0.921,2.621 4.942,0 1.058,-3.059 c 0.02,-0.078 0.059,-0.203 0.059,-0.281 0,-0.601 -1.117,-0.601 -1.66,-0.601 l 0,-0.618 c 0.723,0.059 2.121,0.059 2.883,0.059 l 2.617,-0.059 z m -5.18,5.18 -4.5,0 2.242,6.5 2.258,-6.5 z"
         style="fill:#000000;fill-opacity:1;fill-rule:nonzero;stroke:none"
         id="path34"
         inkscape:connector-curvature="0" /><path
         d="m 180.609,4.101 0,0.618 c -1.402,0 -1.562,0.14 -1.562,1.121 l 0,12.14 -2.879,-0.222 0,-0.614 c 1.398,0 1.559,-0.144 1.559,-1.121 l 0,-4.324 c -0.579,0.719 -1.438,1.242 -2.52,1.242 -2.359,0 -4.461,-1.961 -4.461,-4.543 0,-2.539 1.961,-4.519 4.242,-4.519 1.282,0 2.18,0.683 2.68,1.32 l 0,-1.32 2.941,0.222 z m -2.941,2.36 c 0,-0.36 0,-0.399 -0.219,-0.742 -0.601,-0.961 -1.5,-1.399 -2.359,-1.399 -0.902,0 -1.621,0.52 -2.102,1.281 -0.519,0.817 -0.582,1.961 -0.582,2.778 0,0.742 0.043,1.941 0.621,2.84 0.422,0.621 1.18,1.281 2.262,1.281 0.699,0 1.539,-0.301 2.16,-1.199 0.219,-0.34 0.219,-0.383 0.219,-0.739 l 0,-4.101 z"
         style="fill:#000000;fill-opacity:1;fill-rule:nonzero;stroke:none"
         id="path36"
         inkscape:connector-curvature="0" /><path
         d="m 184.688,3.101 0,9.84 -3.04,-0.222 0,-0.618 c 1.54,0 1.719,-0.14 1.719,-1.121 l 0,-7.918 c 0,-0.902 -0.179,-2.621 -1.461,-2.621 -0.097,0 -0.558,0 -1.078,0.258 0.301,0.082 0.699,0.363 0.699,0.902 0,0.52 -0.359,0.922 -0.918,0.922 -0.562,0 -0.921,-0.402 -0.921,-0.922 0,-1.039 1.121,-1.601 2.261,-1.601 1.5,0 2.739,1.281 2.739,3.101 z m 0,13.082 c 0,0.536 -0.461,1.055 -1.059,1.055 -0.68,0 -1.082,-0.555 -1.082,-1.055 0,-0.539 0.461,-1.062 1.062,-1.062 0.68,0 1.079,0.562 1.079,1.062 z"
         style="fill:#000000;fill-opacity:1;fill-rule:nonzero;stroke:none"
         id="path38"
         inkscape:connector-curvature="0" /><path
         d="m 198.09,4.101 0,0.618 c -1.402,0 -1.563,0.14 -1.563,1.121 l 0,7.101 -2.937,-0.222 0,-0.618 c 1.398,0 1.558,-0.14 1.558,-1.121 l 0,-3.562 c 0,-1.735 -0.96,-3.098 -2.421,-3.098 -1.68,0 -1.758,0.938 -1.758,1.981 l 0,6.64 -2.942,-0.222 0,-0.618 c 1.563,0 1.563,-0.062 1.563,-1.843 l 0,-3 c 0,-1.559 0,-3.379 3.039,-3.379 1.117,0 2,0.562 2.578,1.804 l 0,-1.804 2.883,0.222 z"
         style="fill:#000000;fill-opacity:1;fill-rule:nonzero;stroke:none"
         id="path40"
         inkscape:connector-curvature="0" /><path
         d="m 205.047,6.66 c 0,1.059 -0.598,1.66 -0.84,1.902 -0.66,0.637 -1.437,0.797 -2.277,0.961 -1.121,0.215 -2.461,0.477 -2.461,1.637 0,0.699 0.519,1.523 2.238,1.523 2.199,0 2.301,-1.804 2.34,-2.425 0.019,-0.18 0.242,-0.18 0.242,-0.18 0.258,0 0.258,0.105 0.258,0.484 l 0,2.016 c 0,0.34 0,0.484 -0.219,0.484 -0.101,0 -0.14,0 -0.398,-0.242 -0.063,-0.082 -0.262,-0.258 -0.34,-0.32 -0.762,0.562 -1.582,0.562 -1.883,0.562 -2.437,0 -3.199,-1.343 -3.199,-2.461 0,-0.703 0.32,-1.261 0.859,-1.703 0.641,-0.519 1.199,-0.64 2.641,-0.918 0.441,-0.082 2.082,-0.402 2.082,-1.836 0,-1.023 -0.703,-1.824 -2.262,-1.824 -1.68,0 -2.398,1.141 -2.781,2.84 -0.059,0.258 -0.078,0.34 -0.277,0.34 -0.262,0 -0.262,-0.141 -0.262,-0.5 l 0,-2.641 c 0,-0.336 0,-0.48 0.219,-0.48 0.101,0 0.121,0.019 0.5,0.402 0.043,0.039 0.043,0.078 0.402,0.457 0.879,-0.84 1.777,-0.859 2.199,-0.859 2.301,0 3.219,1.34 3.219,2.781 z"
         style="fill:#000000;fill-opacity:1;fill-rule:nonzero;stroke:none"
         id="path42"
         inkscape:connector-curvature="0" /><path
         d="m 211.707,6.578 0,1.141 -0.5,0 0,-1.098 c 0,-1.477 -0.598,-2.242 -1.34,-2.242 -1.34,0 -1.34,1.82 -1.34,2.16 l 0,5.562 2.86,0 0,0.618 -2.86,0 0,3.679 -0.5,0 c -0.019,-1.64 -0.621,-3.777 -2.578,-3.859 l 0,-0.438 1.699,0 0,-5.523 c 0,-2.457 1.86,-2.699 2.579,-2.699 1.421,0 1.98,1.422 1.98,2.699 z"
         style="fill:#000000;fill-opacity:1;fill-rule:nonzero;stroke:none"
         id="path44"
         inkscape:connector-curvature="0" /><path
         d="m 242.043,5.859 c 0,0.121 0,0.34 -0.262,0.34 -0.222,0 -0.222,-0.176 -0.238,-0.32 -0.121,-1.418 -0.824,-1.778 -1.324,-1.778 -0.977,0 -1.137,1.02 -1.418,2.879 l -0.258,1.598 c -0.363,1.281 -1.34,1.945 -2.445,2.32 1.945,0.481 3.5,1.703 3.5,3.262 0,1.918 -2.278,3.598 -5.215,3.598 l -6.285,0 0,-0.614 0.484,0 c 1.539,0 1.582,-0.226 1.582,-0.945 l 0,-10.539 c 0,-0.719 -0.043,-0.941 -1.582,-0.941 l -0.484,0 0,-0.618 c 0.722,0.059 2.144,0.059 2.922,0.059 0.781,0 2.199,0 2.918,-0.059 l 0,0.618 -0.477,0 c -1.539,0 -1.578,0.222 -1.578,0.941 l 0,5.059 2.297,0 c 0.324,0 1.164,0 1.863,-0.68 0.758,-0.719 0.758,-1.34 0.758,-2.68 0,-1.297 0,-2.101 0.82,-2.859 0.817,-0.719 1.922,-0.84 2.516,-0.84 1.566,0 1.906,1.641 1.906,2.199 z m -4.5,8.301 c 0,-1.379 -0.484,-3 -3.445,-3 l -2.215,0 0,5.18 c 0,0.461 0,0.699 0.437,0.761 0.2,0.043 0.778,0.043 1.184,0.043 1.797,0 4.039,-0.082 4.039,-2.984 z"
         style="fill:#000000;fill-opacity:1;fill-rule:nonzero;stroke:none"
         id="path46"
         inkscape:connector-curvature="0" /><path
         d="m 249.801,4.101 0,0.618 -0.637,0 c -1.801,0 -1.863,0.222 -1.863,0.964 l 0,11.215 c 0,0.481 0,0.52 -0.457,0.52 -1.246,-1.274 -3,-1.274 -3.641,-1.274 l 0,-0.621 c 0.395,0 1.578,0 2.617,0.516 l 0,-10.356 c 0,-0.722 -0.058,-0.964 -1.859,-0.964 l -0.641,0 0,-0.618 c 0.7,0.059 2.442,0.059 3.239,0.059 0.804,0 2.539,0 3.242,-0.059 z"
         style="fill:#000000;fill-opacity:1;fill-rule:nonzero;stroke:none"
         id="path48"
         inkscape:connector-curvature="0" /><path
         d="m 266.117,185.824 0,0.617 -0.637,0 c -1.8,0 -1.863,0.223 -1.863,0.965 l 0,11.215 c 0,0.48 0,0.52 -0.457,0.52 -1.246,-1.274 -3,-1.274 -3.64,-1.274 l 0,-0.621 c 0.394,0 1.578,0 2.617,0.516 l 0,-10.356 c 0,-0.723 -0.059,-0.965 -1.86,-0.965 l -0.64,0 0,-0.617 c 0.699,0.059 2.441,0.059 3.238,0.059 0.805,0 2.539,0 3.242,-0.059 z"
         style="fill:#000000;fill-opacity:1;fill-rule:nonzero;stroke:none"
         id="path50"
         inkscape:connector-curvature="0" /><path
         d="m 77.863,159.832 c 0,-9.941 -8.058,-18 -18,-18 -9.941,0 -18,8.059 -18,18 0,9.937 8.059,18 18,18 9.942,0 18,-8.063 18,-18 z"
         style="fill:#ffffff;fill-opacity:1;fill-rule:nonzero;stroke:#000000;stroke-width:4;stroke-linecap:square;stroke-linejoin:miter;stroke-miterlimit:10;stroke-dasharray:none;stroke-opacity:1"
         id="path52"
         inkscape:connector-curvature="0" /><path
         d="m 113.191,192.348 c 0,1.601 -0.105,3.199 -0.8,4.683 -0.926,1.918 -2.563,2.235 -3.403,2.235 -1.203,0 -2.66,-0.52 -3.48,-2.379 -0.641,-1.379 -0.738,-2.938 -0.738,-4.539 0,-1.5 0.082,-3.301 0.898,-4.817 0.859,-1.621 2.32,-2.023 3.297,-2.023 1.082,0 2.601,0.418 3.48,2.32 0.641,1.379 0.746,2.938 0.746,4.52 z m -1.664,0.238 c 0,-1.5 0,-2.86 -0.218,-4.137 -0.301,-1.902 -1.442,-2.5 -2.344,-2.5 -0.774,0 -1.957,0.5 -2.317,2.422 -0.218,1.195 -0.218,3.039 -0.218,4.215 0,1.285 0,2.601 0.156,3.68 0.379,2.382 1.879,2.562 2.379,2.562 0.66,0 1.98,-0.359 2.363,-2.336 0.199,-1.121 0.199,-2.644 0.199,-3.906 z"
         style="fill:#000000;fill-opacity:1;fill-rule:nonzero;stroke:none"
         id="path54"
         inkscape:connector-curvature="0" /><path
         d="m 21.34,190.875 -0.5,0 c -0.219,-2.039 -0.5,-4.539 -4.016,-4.539 l -1.64,0 c -0.946,0 -0.985,0.14 -0.985,0.801 l 0,10.66 c 0,0.679 0,0.961 1.903,0.961 l 0.656,0 0,0.617 c -0.719,-0.059 -2.539,-0.059 -3.356,-0.059 -0.781,0 -2.34,0 -3.039,0.059 l 0,-0.617 0.477,0 c 1.543,0 1.582,-0.223 1.582,-0.942 l 0,-10.539 c 0,-0.722 -0.039,-0.941 -1.582,-0.941 l -0.477,0 0,-0.621 10.418,0 0.559,5.16 z"
         style="fill:#000000;fill-opacity:1;fill-rule:nonzero;stroke:none"
         id="path56"
         inkscape:connector-curvature="0" /><path
         d="m 30.965,189.996 c 0,2.559 -2,4.68 -4.426,4.68 -2.5,0 -4.437,-2.18 -4.437,-4.68 0,-2.578 2.082,-4.5 4.421,-4.5 2.418,0 4.442,1.961 4.442,4.5 z m -1.664,0.16 c 0,-0.719 0,-1.801 -0.438,-2.68 -0.441,-0.898 -1.324,-1.48 -2.324,-1.48 -0.855,0 -1.738,0.422 -2.281,1.34 -0.5,0.879 -0.5,2.101 -0.5,2.82 0,0.781 0,1.86 0.48,2.742 0.543,0.918 1.481,1.34 2.285,1.34 0.879,0 1.735,-0.441 2.258,-1.301 0.52,-0.859 0.52,-2.019 0.52,-2.781 z"
         style="fill:#000000;fill-opacity:1;fill-rule:nonzero;stroke:none"
         id="path58"
         inkscape:connector-curvature="0" /><path
         d="m 40.645,187.496 0,1.121 -0.5,0 0,-1.121 c 0,-1.16 -0.5,-1.281 -0.723,-1.281 -0.664,0 -0.738,0.902 -0.738,1 l 0,4 c 0,0.84 0,1.621 -0.719,2.363 -0.781,0.777 -1.781,1.098 -2.746,1.098 -1.641,0 -3.02,-0.938 -3.02,-2.258 0,-0.602 0.403,-0.942 0.922,-0.942 0.563,0 0.918,0.399 0.918,0.922 0,0.239 -0.098,0.899 -1.016,0.918 0.539,0.7 1.516,0.922 2.161,0.922 0.976,0 2.117,-0.781 2.117,-2.562 l 0,-0.739 c -1.02,-0.062 -2.418,-0.121 -3.68,-0.722 -1.5,-0.68 -2,-1.719 -2,-2.598 0,-1.621 1.941,-2.121 3.203,-2.121 1.321,0 2.238,0.801 2.617,1.742 0.082,-0.801 0.621,-1.64 1.559,-1.64 0.422,0 1.645,0.277 1.645,1.898 z m -3.344,1.02 c 0,-1.899 -1.438,-2.579 -2.336,-2.579 -0.981,0 -1.805,0.7 -1.805,1.7 0,1.101 0.84,2.761 4.141,2.879 l 0,-2 z"
         style="fill:#000000;fill-opacity:1;fill-rule:nonzero;stroke:none"
         id="path60"
         inkscape:connector-curvature="0" /><path
         d="m 50.883,185.715 0,0.621 c -1.399,0 -1.559,0.14 -1.559,1.121 l 0,12.141 -2.883,-0.223 0,-0.617 c 1.399,0 1.559,-0.141 1.559,-1.121 l 0,-4.321 c -0.578,0.719 -1.438,1.239 -2.516,1.239 -2.363,0 -4.461,-1.957 -4.461,-4.539 0,-2.54 1.961,-4.52 4.235,-4.52 1.281,0 2.183,0.68 2.683,1.32 l 0,-1.32 2.942,0.219 z m -2.942,2.363 c 0,-0.363 0,-0.402 -0.222,-0.742 -0.598,-0.961 -1.5,-1.399 -2.356,-1.399 -0.898,0 -1.625,0.52 -2.105,1.278 -0.52,0.82 -0.574,1.961 -0.574,2.781 0,0.742 0.035,1.941 0.617,2.84 0.418,0.621 1.183,1.281 2.261,1.281 0.696,0 1.54,-0.301 2.157,-1.199 0.222,-0.34 0.222,-0.383 0.222,-0.742 l 0,-4.098 z"
         style="fill:#000000;fill-opacity:1;fill-rule:nonzero;stroke:none"
         id="path62"
         inkscape:connector-curvature="0" /><path
         d="m 80.402,187.476 c 0,0.122 0,0.34 -0.257,0.34 -0.223,0 -0.223,-0.179 -0.243,-0.32 -0.121,-1.418 -0.824,-1.781 -1.324,-1.781 -0.976,0 -1.137,1.023 -1.418,2.883 l -0.258,1.597 c -0.363,1.281 -1.34,1.942 -2.437,2.321 1.937,0.48 3.5,1.699 3.5,3.261 0,1.918 -2.281,3.598 -5.227,3.598 l -6.273,0 0,-0.617 0.476,0 c 1.543,0 1.582,-0.223 1.582,-0.942 l 0,-10.539 c 0,-0.722 -0.039,-0.941 -1.582,-0.941 l -0.476,0 0,-0.621 c 0.719,0.062 2.137,0.062 2.918,0.062 0.777,0 2.195,0 2.918,-0.062 l 0,0.621 -0.477,0 c -1.543,0 -1.586,0.219 -1.586,0.941 l 0,5.059 2.301,0 c 0.324,0 1.16,0 1.863,-0.68 0.758,-0.719 0.758,-1.34 0.758,-2.68 0,-1.3 0,-2.101 0.824,-2.859 0.817,-0.719 1.918,-0.84 2.516,-0.84 1.562,0 1.902,1.641 1.902,2.199 z m -4.5,8.301 c 0,-1.379 -0.48,-3 -3.437,-3 l -2.227,0 0,5.18 c 0,0.461 0,0.699 0.446,0.758 0.199,0.043 0.781,0.043 1.179,0.043 1.797,0 4.039,-0.082 4.039,-2.981 z"
         style="fill:#000000;fill-opacity:1;fill-rule:nonzero;stroke:none"
         id="path64"
         inkscape:connector-curvature="0" /><path
         d="m 88.984,192.117 c 0,1.598 -0.101,3.199 -0.8,4.68 -0.926,1.918 -2.563,2.238 -3.403,2.238 -1.203,0 -2.66,-0.519 -3.48,-2.379 -0.641,-1.379 -0.739,-2.941 -0.739,-4.539 0,-1.5 0.083,-3.301 0.903,-4.82 0.859,-1.621 2.316,-2.02 3.293,-2.02 1.082,0 2.605,0.418 3.48,2.321 0.645,1.378 0.746,2.937 0.746,4.519 z m -1.66,0.238 c 0,-1.5 0,-2.859 -0.222,-4.14 -0.301,-1.899 -1.442,-2.5 -2.344,-2.5 -0.774,0 -1.957,0.5 -2.317,2.422 -0.222,1.199 -0.222,3.039 -0.222,4.218 0,1.282 0,2.602 0.164,3.68 0.375,2.383 1.875,2.563 2.375,2.563 0.664,0 1.98,-0.36 2.363,-2.34 0.203,-1.121 0.203,-2.641 0.203,-3.903 z"
         style="fill:#000000;fill-opacity:1;fill-rule:nonzero;stroke:none"
         id="path66"
         inkscape:connector-curvature="0" /><path
         d="m 233.363,159.832 c 0,-9.941 -8.058,-18 -18,-18 -9.937,0 -18,8.059 -18,18 0,9.937 8.063,18 18,18 9.942,0 18,-8.063 18,-18 z"
         style="fill:#ffffff;fill-opacity:1;fill-rule:nonzero;stroke:#000000;stroke-width:4;stroke-linecap:square;stroke-linejoin:miter;stroke-miterlimit:10;stroke-dasharray:none;stroke-opacity:1"
         id="path68"
         inkscape:connector-curvature="0" /><path
         d="m 59.863,141.832 0,-68"
         style="fill:none;stroke:#000000;stroke-width:0.80000001;stroke-linecap:square;stroke-linejoin:miter;stroke-miterlimit:10;stroke-dasharray:none;stroke-opacity:1"
         id="path70"
         inkscape:connector-curvature="0" /><path
         d="m 62.863,73.832 -6,0 3,-16 3,16 z"
         style="fill:#000000;fill-opacity:1;fill-rule:nonzero;stroke:none"
         id="path72"
         inkscape:connector-curvature="0" /><path
         d="m 215.363,141.832 0,-68"
         style="fill:none;stroke:#000000;stroke-width:0.80000001;stroke-linecap:square;stroke-linejoin:miter;stroke-miterlimit:10;stroke-dasharray:none;stroke-opacity:1"
         id="path74"
         inkscape:connector-curvature="0" /><path
         d="m 217.684,73.832 -6,0 3,-16 3,16 z"
         style="fill:#000000;fill-opacity:1;fill-rule:nonzero;stroke:none"
         id="path76"
         inkscape:connector-curvature="0" /><g
         id="g78"
         transform="translate(0,-0.402466)"><g
           id="g80"><g
             id="g82"
             clip-path="url(#clipPath84)"><g
               id="g88"><path
                 d="m 273.039,8.156 c 0,1.539 -1.18,3 -3.129,3.395 1.539,0.508 2.625,1.82 2.625,3.301 0,1.539 -1.648,2.586 -3.449,2.586 -1.895,0 -3.316,-1.126 -3.316,-2.547 0,-0.621 0.41,-0.977 0.953,-0.977 0.582,0 0.957,0.414 0.957,0.957 0,0.938 -0.879,0.938 -1.16,0.938 0.578,0.918 1.816,1.16 2.492,1.16 0.769,0 1.797,-0.41 1.797,-2.098 0,-0.226 -0.036,-1.312 -0.524,-2.137 -0.562,-0.902 -1.199,-0.957 -1.668,-0.976 -0.148,-0.02 -0.601,-0.055 -0.73,-0.055 -0.149,-0.019 -0.282,-0.039 -0.282,-0.226 0,-0.207 0.133,-0.207 0.45,-0.207 l 0.824,0 c 1.539,0 2.23,-1.274 2.23,-3.114 0,-2.547 -1.293,-3.094 -2.117,-3.094 -0.804,0 -2.211,0.321 -2.867,1.426 0.656,-0.093 1.238,0.321 1.238,1.032 0,0.675 -0.508,1.05 -1.051,1.05 -0.449,0 -1.05,-0.261 -1.05,-1.086 0,-1.707 1.742,-2.945 3.785,-2.945 2.289,0 3.992,1.707 3.992,3.617 z"
                 style="fill:#000000;fill-opacity:1;fill-rule:nonzero;stroke:none"
                 id="path90"
                 inkscape:connector-curvature="0" /></g></g></g></g><path
         d="m 117.492,7.605 -0.469,0 C 116.93,7.043 116.797,6.219 116.609,5.937 116.48,5.785 115.242,5.785 114.828,5.785 l -3.375,0 1.988,1.934 c 2.926,2.586 4.051,3.597 4.051,5.472 0,2.141 -1.687,3.641 -3.976,3.641 -2.118,0 -3.504,-1.727 -3.504,-3.395 0,-1.05 0.937,-1.05 0.992,-1.05 0.32,0 0.976,0.226 0.976,0.992 0,0.488 -0.339,0.976 -0.992,0.976 -0.152,0 -0.187,0 -0.246,-0.019 0.434,1.219 1.446,1.914 2.531,1.914 1.707,0 2.512,-1.52 2.512,-3.059 0,-1.5 -0.937,-2.98 -1.969,-4.14 l -3.597,-4.016 c -0.207,-0.203 -0.207,-0.242 -0.207,-0.691 l 6.953,0 0.527,3.261 z"
         style="fill:#000000;fill-opacity:1;fill-rule:nonzero;stroke:none"
         id="path92"
         inkscape:connector-curvature="0" /><path
         d="m 175.383,190.875 -0.5,0 c -0.215,-2.039 -0.5,-4.539 -4.016,-4.539 l -1.64,0 c -0.942,0 -0.981,0.14 -0.981,0.801 l 0,10.66 c 0,0.679 0,0.961 1.899,0.961 l 0.656,0 0,0.617 c -0.715,-0.059 -2.539,-0.059 -3.356,-0.059 -0.777,0 -2.34,0 -3.039,0.059 l 0,-0.617 0.477,0 c 1.543,0 1.582,-0.223 1.582,-0.942 l 0,-10.539 c 0,-0.722 -0.039,-0.941 -1.582,-0.941 l -0.477,0 0,-0.621 10.422,0 0.555,5.16 z"
         style="fill:#000000;fill-opacity:1;fill-rule:nonzero;stroke:none"
         id="path94"
         inkscape:connector-curvature="0" /><path
         d="m 185.008,189.996 c 0,2.559 -2,4.68 -4.422,4.68 -2.5,0 -4.441,-2.18 -4.441,-4.68 0,-2.578 2.082,-4.5 4.421,-4.5 2.418,0 4.442,1.961 4.442,4.5 z m -1.664,0.16 c 0,-0.719 0,-1.801 -0.438,-2.68 -0.441,-0.898 -1.32,-1.48 -2.32,-1.48 -0.859,0 -1.742,0.422 -2.285,1.34 -0.5,0.879 -0.5,2.101 -0.5,2.82 0,0.781 0,1.86 0.484,2.742 0.543,0.918 1.477,1.34 2.281,1.34 0.879,0 1.735,-0.441 2.262,-1.301 0.516,-0.859 0.516,-2.019 0.516,-2.781 z"
         style="fill:#000000;fill-opacity:1;fill-rule:nonzero;stroke:none"
         id="path96"
         inkscape:connector-curvature="0" /><path
         d="m 194.688,187.496 0,1.121 -0.5,0 0,-1.121 c 0,-1.16 -0.5,-1.281 -0.723,-1.281 -0.664,0 -0.738,0.902 -0.738,1 l 0,4 c 0,0.84 0,1.621 -0.719,2.363 -0.781,0.777 -1.781,1.098 -2.746,1.098 -1.637,0 -3.016,-0.938 -3.016,-2.258 0,-0.602 0.399,-0.942 0.922,-0.942 0.559,0 0.918,0.399 0.918,0.922 0,0.239 -0.102,0.899 -1.02,0.918 0.539,0.7 1.52,0.922 2.161,0.922 0.98,0 2.117,-0.781 2.117,-2.562 l 0,-0.739 c -1.016,-0.062 -2.418,-0.121 -3.676,-0.722 -1.5,-0.68 -2,-1.719 -2,-2.598 0,-1.621 1.937,-2.121 3.199,-2.121 1.321,0 2.238,0.801 2.617,1.742 0.082,-0.801 0.621,-1.64 1.563,-1.64 0.418,0 1.641,0.277 1.641,1.898 z m -3.344,1.02 c 0,-1.899 -1.438,-2.579 -2.336,-2.579 -0.981,0 -1.801,0.7 -1.801,1.7 0,1.101 0.84,2.761 4.137,2.879 l 0,-2 z"
         style="fill:#000000;fill-opacity:1;fill-rule:nonzero;stroke:none"
         id="path98"
         inkscape:connector-curvature="0" /><path
         d="m 204.926,185.715 0,0.621 c -1.399,0 -1.559,0.14 -1.559,1.121 l 0,12.141 -2.883,-0.223 0,-0.617 c 1.399,0 1.563,-0.141 1.563,-1.121 l 0,-4.321 c -0.582,0.719 -1.442,1.239 -2.52,1.239 -2.359,0 -4.461,-1.957 -4.461,-4.539 0,-2.54 1.961,-4.52 4.235,-4.52 1.285,0 2.183,0.68 2.683,1.32 l 0,-1.32 2.942,0.219 z m -2.942,2.363 c 0,-0.363 0,-0.402 -0.222,-0.742 -0.594,-0.961 -1.5,-1.399 -2.356,-1.399 -0.898,0 -1.621,0.52 -2.105,1.278 -0.516,0.82 -0.574,1.961 -0.574,2.781 0,0.742 0.035,1.941 0.617,2.84 0.418,0.621 1.183,1.281 2.261,1.281 0.696,0 1.54,-0.301 2.157,-1.199 0.222,-0.34 0.222,-0.383 0.222,-0.742 l 0,-4.098 z"
         style="fill:#000000;fill-opacity:1;fill-rule:nonzero;stroke:none"
         id="path100"
         inkscape:connector-curvature="0" /><path
         d="m 234.445,187.476 c 0,0.122 0,0.34 -0.257,0.34 -0.223,0 -0.223,-0.179 -0.243,-0.32 -0.117,-1.418 -0.82,-1.781 -1.32,-1.781 -0.98,0 -1.141,1.023 -1.418,2.883 l -0.262,1.597 c -0.359,1.281 -1.34,1.942 -2.437,2.321 1.937,0.48 3.5,1.699 3.5,3.261 0,1.918 -2.281,3.598 -5.223,3.598 l -6.277,0 0,-0.617 0.476,0 c 1.543,0 1.582,-0.223 1.582,-0.942 l 0,-10.539 c 0,-0.722 -0.039,-0.941 -1.582,-0.941 l -0.476,0 0,-0.621 c 0.719,0.062 2.137,0.062 2.918,0.062 0.781,0 2.199,0 2.918,-0.062 l 0,0.621 -0.477,0 c -1.539,0 -1.582,0.219 -1.582,0.941 l 0,5.059 2.301,0 c 0.32,0 1.16,0 1.859,-0.68 0.762,-0.719 0.762,-1.34 0.762,-2.68 0,-1.3 0,-2.101 0.82,-2.859 0.817,-0.719 1.918,-0.84 2.52,-0.84 1.558,0 1.898,1.641 1.898,2.199 z m -4.5,8.301 c 0,-1.379 -0.48,-3 -3.437,-3 l -2.223,0 0,5.18 c 0,0.461 0,0.699 0.442,0.758 0.199,0.043 0.781,0.043 1.179,0.043 1.801,0 4.039,-0.082 4.039,-2.981 z"
         style="fill:#000000;fill-opacity:1;fill-rule:nonzero;stroke:none"
         id="path102"
         inkscape:connector-curvature="0" /><path
         d="m 242.227,185.492 0,0.617 -0.637,0 c -1.801,0 -1.863,0.223 -1.863,0.965 l 0,11.215 c 0,0.48 0,0.519 -0.461,0.519 -1.246,-1.273 -3,-1.273 -3.637,-1.273 l 0,-0.621 c 0.391,0 1.578,0 2.617,0.516 l 0,-10.356 c 0,-0.723 -0.062,-0.965 -1.859,-0.965 l -0.641,0 0,-0.617 c 0.695,0.059 2.438,0.059 3.234,0.059 0.809,0 2.54,0 3.247,-0.059 z"
         style="fill:#000000;fill-opacity:1;fill-rule:nonzero;stroke:none"
         id="path104"
         inkscape:connector-curvature="0" /></g></g></svg>