<?xml version="1.0" encoding="UTF-8" standalone="no"?>
<!-- Created with Inkscape (http://www.inkscape.org/) -->

<svg
   xmlns:dc="http://purl.org/dc/elements/1.1/"
   xmlns:cc="http://creativecommons.org/ns#"
   xmlns:rdf="http://www.w3.org/1999/02/22-rdf-syntax-ns#"
   xmlns:svg="http://www.w3.org/2000/svg"
   xmlns="http://www.w3.org/2000/svg"
   xmlns:sodipodi="http://sodipodi.sourceforge.net/DTD/sodipodi-0.dtd"
   xmlns:inkscape="http://www.inkscape.org/namespaces/inkscape"
   id="svg2"
   version="1.1"
   inkscape:version="0.91 r13725"
   xml:space="preserve"
   width="416.18033"
   height="249.49692"
   viewBox="0 0 416.18033 249.49692"
   sodipodi:docname="ataed-scenario-drive-straight.svg"><metadata
     id="metadata8"><rdf:RDF><cc:Work
         rdf:about=""><dc:format>image/svg+xml</dc:format><dc:type
           rdf:resource="http://purl.org/dc/dcmitype/StillImage" /><dc:title></dc:title></cc:Work></rdf:RDF></metadata><defs
     id="defs6"><clipPath
       clipPathUnits="userSpaceOnUse"
       id="clipPath80"><path
         d="m 325,4 8,0 0,14 -8,0 0,-14 z"
         id="path82"
         inkscape:connector-curvature="0" /></clipPath></defs><sodipodi:namedview
     pagecolor="#ffffff"
     bordercolor="#666666"
     borderopacity="1"
     objecttolerance="10"
     gridtolerance="10"
     guidetolerance="10"
     inkscape:pageopacity="0"
     inkscape:pageshadow="2"
     inkscape:window-width="1920"
     inkscape:window-height="1027"
     id="namedview4"
     showgrid="false"
     inkscape:zoom="0.94590347"
     inkscape:cx="210.20454"
     inkscape:cy="124.74846"
     inkscape:window-x="0"
     inkscape:window-y="27"
     inkscape:window-maximized="1"
     inkscape:current-layer="g10" /><g
     id="g10"
     inkscape:groupmode="layer"
     inkscape:label="ataed-scenario-drive-straight"
     transform="matrix(1.25,0,0,-1.25,0,249.49692)"><g
       id="g12"><path
         d="m 66.941,39.715 c 0,-9.938 -8.062,-18 -18,-18 -9.941,0 -18,8.062 -18,18 0,9.941 8.059,18 18,18 9.938,0 18,-8.059 18,-18 z"
         style="fill:#ffffff;fill-opacity:1;fill-rule:nonzero;stroke:#000000;stroke-width:4;stroke-linecap:square;stroke-linejoin:miter;stroke-miterlimit:10;stroke-dasharray:none;stroke-opacity:1"
         id="path14"
         inkscape:connector-curvature="0" /><path
         d="m 176.941,159.715 c 0,-9.938 -8.062,-18 -18,-18 -9.941,0 -18,8.062 -18,18 0,9.941 8.059,18 18,18 9.938,0 18,-8.059 18,-18 z"
         style="fill:#ffffff;fill-opacity:1;fill-rule:nonzero;stroke:#000000;stroke-width:4;stroke-linecap:square;stroke-linejoin:miter;stroke-miterlimit:10;stroke-dasharray:none;stroke-opacity:1"
         id="path16"
         inkscape:connector-curvature="0" /><path
         d="m 211.242,192.348 c 0,1.601 -0.101,3.199 -0.801,4.683 -0.921,1.918 -2.558,2.235 -3.398,2.235 -1.203,0 -2.66,-0.52 -3.481,-2.379 -0.64,-1.379 -0.742,-2.938 -0.742,-4.539 0,-1.5 0.082,-3.301 0.903,-4.817 0.859,-1.621 2.32,-2.023 3.297,-2.023 1.082,0 2.601,0.418 3.48,2.32 0.641,1.379 0.742,2.938 0.742,4.52 z m -1.66,0.238 c 0,-1.5 0,-2.86 -0.223,-4.137 -0.297,-1.902 -1.437,-2.5 -2.339,-2.5 -0.778,0 -1.958,0.5 -2.321,2.422 -0.219,1.195 -0.219,3.039 -0.219,4.215 0,1.285 0,2.601 0.161,3.68 0.379,2.382 1.879,2.562 2.379,2.562 0.66,0 1.98,-0.359 2.363,-2.336 0.199,-1.121 0.199,-2.644 0.199,-3.906 z"
         style="fill:#000000;fill-opacity:1;fill-rule:nonzero;stroke:none"
         id="path18"
         inkscape:connector-curvature="0" /><path
         d="m 119.391,190.875 -0.5,0 c -0.215,-2.039 -0.5,-4.539 -4.016,-4.539 l -1.641,0 c -0.941,0 -0.98,0.14 -0.98,0.801 l 0,10.66 c 0,0.679 0,0.961 1.898,0.961 l 0.657,0 0,0.617 c -0.715,-0.059 -2.539,-0.059 -3.356,-0.059 -0.777,0 -2.34,0 -3.039,0.059 l 0,-0.617 0.477,0 c 1.543,0 1.582,-0.223 1.582,-0.942 l 0,-10.539 c 0,-0.722 -0.039,-0.941 -1.582,-0.941 l -0.477,0 0,-0.621 10.422,0 0.555,5.16 z"
         style="fill:#000000;fill-opacity:1;fill-rule:nonzero;stroke:none"
         id="path20"
         inkscape:connector-curvature="0" /><path
         d="m 129.016,189.996 c 0,2.559 -2,4.68 -4.422,4.68 -2.5,0 -4.442,-2.18 -4.442,-4.68 0,-2.578 2.082,-4.5 4.422,-4.5 2.418,0 4.442,1.961 4.442,4.5 z m -1.664,0.16 c 0,-0.719 0,-1.801 -0.438,-2.68 -0.441,-0.898 -1.32,-1.48 -2.32,-1.48 -0.86,0 -1.742,0.422 -2.285,1.34 -0.5,0.879 -0.5,2.101 -0.5,2.82 0,0.781 0,1.86 0.484,2.742 0.543,0.918 1.477,1.34 2.281,1.34 0.879,0 1.735,-0.441 2.262,-1.301 0.516,-0.859 0.516,-2.019 0.516,-2.781 z"
         style="fill:#000000;fill-opacity:1;fill-rule:nonzero;stroke:none"
         id="path22"
         inkscape:connector-curvature="0" /><path
         d="m 138.695,187.496 0,1.121 -0.5,0 0,-1.121 c 0,-1.16 -0.5,-1.281 -0.722,-1.281 -0.664,0 -0.739,0.902 -0.739,1 l 0,4 c 0,0.84 0,1.621 -0.718,2.363 -0.782,0.777 -1.782,1.098 -2.746,1.098 -1.637,0 -3.016,-0.938 -3.016,-2.258 0,-0.602 0.398,-0.942 0.922,-0.942 0.558,0 0.918,0.399 0.918,0.922 0,0.239 -0.102,0.899 -1.02,0.918 0.539,0.7 1.52,0.922 2.16,0.922 0.981,0 2.118,-0.781 2.118,-2.562 l 0,-0.739 c -1.016,-0.062 -2.418,-0.121 -3.676,-0.722 -1.5,-0.68 -2,-1.719 -2,-2.598 0,-1.621 1.937,-2.121 3.199,-2.121 1.32,0 2.238,0.801 2.617,1.742 0.082,-0.801 0.621,-1.64 1.563,-1.64 0.418,0 1.64,0.277 1.64,1.898 z m -3.343,1.02 c 0,-1.899 -1.438,-2.579 -2.336,-2.579 -0.981,0 -1.801,0.7 -1.801,1.7 0,1.101 0.84,2.761 4.137,2.879 l 0,-2 z"
         style="fill:#000000;fill-opacity:1;fill-rule:nonzero;stroke:none"
         id="path24"
         inkscape:connector-curvature="0" /><path
         d="m 148.934,185.715 0,0.621 c -1.399,0 -1.559,0.14 -1.559,1.121 l 0,12.141 -2.883,-0.223 0,-0.617 c 1.399,0 1.563,-0.141 1.563,-1.121 l 0,-4.321 c -0.582,0.719 -1.442,1.239 -2.52,1.239 -2.359,0 -4.461,-1.957 -4.461,-4.539 0,-2.54 1.961,-4.52 4.235,-4.52 1.285,0 2.183,0.68 2.683,1.32 l 0,-1.32 2.942,0.219 z m -2.942,2.363 c 0,-0.363 0,-0.402 -0.222,-0.742 -0.594,-0.961 -1.5,-1.399 -2.356,-1.399 -0.898,0 -1.621,0.52 -2.105,1.278 -0.516,0.82 -0.575,1.961 -0.575,2.781 0,0.742 0.036,1.941 0.618,2.84 0.418,0.621 1.183,1.281 2.261,1.281 0.696,0 1.539,-0.301 2.157,-1.199 0.222,-0.34 0.222,-0.383 0.222,-0.742 l 0,-4.098 z"
         style="fill:#000000;fill-opacity:1;fill-rule:nonzero;stroke:none"
         id="path26"
         inkscape:connector-curvature="0" /><path
         d="m 178.453,187.476 c 0,0.122 0,0.34 -0.258,0.34 -0.222,0 -0.222,-0.179 -0.242,-0.32 -0.117,-1.418 -0.82,-1.781 -1.32,-1.781 -0.981,0 -1.141,1.023 -1.418,2.883 l -0.262,1.597 c -0.359,1.281 -1.34,1.942 -2.437,2.321 1.937,0.48 3.5,1.699 3.5,3.261 0,1.918 -2.282,3.598 -5.223,3.598 l -6.277,0 0,-0.617 0.476,0 c 1.543,0 1.582,-0.223 1.582,-0.942 l 0,-10.539 c 0,-0.722 -0.039,-0.941 -1.582,-0.941 l -0.476,0 0,-0.621 c 0.718,0.062 2.136,0.062 2.918,0.062 0.781,0 2.199,0 2.918,-0.062 l 0,0.621 -0.477,0 c -1.539,0 -1.582,0.219 -1.582,0.941 l 0,5.059 2.301,0 c 0.32,0 1.16,0 1.859,-0.68 0.762,-0.719 0.762,-1.34 0.762,-2.68 0,-1.3 0,-2.101 0.82,-2.859 0.817,-0.719 1.918,-0.84 2.52,-0.84 1.558,0 1.898,1.641 1.898,2.199 z m -4.5,8.301 c 0,-1.379 -0.48,-3 -3.437,-3 l -2.223,0 0,5.18 c 0,0.461 0,0.699 0.441,0.758 0.2,0.043 0.782,0.043 1.18,0.043 1.801,0 4.039,-0.082 4.039,-2.981 z"
         style="fill:#000000;fill-opacity:1;fill-rule:nonzero;stroke:none"
         id="path28"
         inkscape:connector-curvature="0" /><path
         d="m 187.035,192.117 c 0,1.598 -0.101,3.199 -0.801,4.68 -0.925,1.918 -2.558,2.238 -3.398,2.238 -1.203,0 -2.66,-0.519 -3.484,-2.379 -0.637,-1.379 -0.739,-2.941 -0.739,-4.539 0,-1.5 0.082,-3.301 0.903,-4.82 0.859,-1.621 2.32,-2.02 3.293,-2.02 1.082,0 2.605,0.418 3.484,2.321 0.641,1.378 0.742,2.937 0.742,4.519 z m -1.66,0.238 c 0,-1.5 0,-2.859 -0.223,-4.14 -0.3,-1.899 -1.437,-2.5 -2.343,-2.5 -0.774,0 -1.957,0.5 -2.317,2.422 -0.222,1.199 -0.222,3.039 -0.222,4.218 0,1.282 0,2.602 0.164,3.68 0.375,2.383 1.875,2.563 2.375,2.563 0.664,0 1.984,-0.36 2.367,-2.34 0.199,-1.121 0.199,-2.641 0.199,-3.903 z"
         style="fill:#000000;fill-opacity:1;fill-rule:nonzero;stroke:none"
         id="path30"
         inkscape:connector-curvature="0" /><path
         d="m 286.941,39.715 c 0,-9.938 -8.062,-18 -18,-18 -9.941,0 -18,8.062 -18,18 0,9.941 8.059,18 18,18 9.938,0 18,-8.059 18,-18 z"
         style="fill:#ffffff;fill-opacity:1;fill-rule:nonzero;stroke:#000000;stroke-width:4;stroke-linecap:square;stroke-linejoin:miter;stroke-miterlimit:10;stroke-dasharray:none;stroke-opacity:1"
         id="path32"
         inkscape:connector-curvature="0" /><path
         d="m 13.699,4.098 0,0.621 -0.363,0 c -1.195,0 -1.477,0.14 -1.695,0.8 l -4.321,12.5 c -0.101,0.262 -0.14,0.399 -0.461,0.399 -0.32,0 -0.379,-0.117 -0.48,-0.399 L 2.238,6.058 C 1.879,5.039 1.078,4.738 0,4.719 L 0,4.098 2.039,4.16 4.336,4.098 l 0,0.621 c -1,0 -1.5,0.5 -1.5,1.019 0,0.063 0.023,0.262 0.043,0.301 l 0.918,2.621 4.941,0 1.059,-3.062 C 9.82,5.519 9.859,5.398 9.859,5.32 9.859,4.719 8.738,4.719 8.199,4.719 l 0,-0.621 C 8.918,4.16 10.32,4.16 11.078,4.16 l 2.621,-0.062 z m -5.179,5.183 -4.5,0 2.234,6.5 2.266,-6.5 z"
         style="fill:#000000;fill-opacity:1;fill-rule:nonzero;stroke:none"
         id="path34"
         inkscape:connector-curvature="0" /><path
         d="m 24.254,4.098 0,0.621 c -1.395,0 -1.555,0.14 -1.555,1.121 l 0,12.14 -2.879,-0.222 0,-0.617 c 1.399,0 1.559,-0.141 1.559,-1.122 l 0,-4.32 c -0.582,0.719 -1.441,1.238 -2.52,1.238 -2.359,0 -4.461,-1.957 -4.461,-4.539 0,-2.539 1.961,-4.519 4.243,-4.519 1.277,0 2.179,0.679 2.679,1.32 l 0,-1.32 2.934,0.219 z M 21.32,6.461 c 0,-0.363 0,-0.403 -0.222,-0.742 -0.598,-0.961 -1.5,-1.399 -2.36,-1.399 -0.902,0 -1.617,0.52 -2.097,1.278 -0.52,0.82 -0.582,1.96 -0.582,2.781 0,0.742 0.039,1.941 0.621,2.84 0.418,0.621 1.179,1.281 2.258,1.281 0.703,0 1.542,-0.301 2.16,-1.199 0.222,-0.34 0.222,-0.383 0.222,-0.743 l 0,-4.097 z"
         style="fill:#000000;fill-opacity:1;fill-rule:nonzero;stroke:none"
         id="path36"
         inkscape:connector-curvature="0" /><path
         d="m 28.336,3.098 0,9.839 -3.039,-0.218 0,-0.621 c 1.539,0 1.723,-0.137 1.723,-1.118 l 0,-7.922 c 0,-0.898 -0.184,-2.621 -1.461,-2.621 -0.098,0 -0.559,0 -1.079,0.262 0.301,0.082 0.7,0.359 0.7,0.899 0,0.523 -0.36,0.921 -0.926,0.921 -0.555,0 -0.918,-0.398 -0.918,-0.921 0,-1.04 1.125,-1.598 2.262,-1.598 1.5,0 2.738,1.281 2.738,3.098 z m 0,13.082 c 0,0.539 -0.457,1.058 -1.055,1.058 -0.683,0 -1.082,-0.558 -1.082,-1.058 0,-0.539 0.461,-1.059 1.055,-1.059 0.684,0 1.082,0.559 1.082,1.059 z"
         style="fill:#000000;fill-opacity:1;fill-rule:nonzero;stroke:none"
         id="path38"
         inkscape:connector-curvature="0" /><path
         d="m 41.738,4.098 0,0.621 c -1.402,0 -1.558,0.14 -1.558,1.121 l 0,7.097 -2.942,-0.218 0,-0.621 c 1.403,0 1.559,-0.137 1.559,-1.118 l 0,-3.562 c 0,-1.738 -0.961,-3.098 -2.418,-3.098 -1.68,0 -1.758,0.938 -1.758,1.981 l 0,6.636 -2.941,-0.218 0,-0.621 c 1.558,0 1.558,-0.059 1.558,-1.84 l 0,-3 c 0,-1.559 0,-3.379 3.043,-3.379 1.117,0 2,0.558 2.578,1.801 l 0,-1.801 2.879,0.219 z"
         style="fill:#000000;fill-opacity:1;fill-rule:nonzero;stroke:none"
         id="path40"
         inkscape:connector-curvature="0" /><path
         d="m 48.699,6.66 c 0,1.059 -0.601,1.66 -0.84,1.898 -0.66,0.641 -1.441,0.801 -2.281,0.961 -1.117,0.219 -2.457,0.481 -2.457,1.641 0,0.699 0.52,1.52 2.238,1.52 2.2,0 2.301,-1.801 2.34,-2.422 0.02,-0.18 0.239,-0.18 0.239,-0.18 0.261,0 0.261,0.102 0.261,0.48 l 0,2.02 c 0,0.34 0,0.48 -0.219,0.48 -0.101,0 -0.144,0 -0.402,-0.238 -0.058,-0.082 -0.258,-0.262 -0.34,-0.32 -0.758,0.558 -1.578,0.558 -1.879,0.558 -2.441,0 -3.199,-1.339 -3.199,-2.46 0,-0.7 0.32,-1.258 0.86,-1.7 0.64,-0.519 1.199,-0.64 2.64,-0.918 0.438,-0.082 2.078,-0.402 2.078,-1.839 0,-1.02 -0.699,-1.821 -2.258,-1.821 -1.683,0 -2.402,1.141 -2.781,2.84 C 42.641,7.418 42.621,7.5 42.418,7.5 42.16,7.5 42.16,7.359 42.16,7 l 0,-2.641 c 0,-0.34 0,-0.48 0.219,-0.48 0.101,0 0.121,0.019 0.5,0.402 0.039,0.039 0.039,0.078 0.402,0.457 0.879,-0.84 1.778,-0.859 2.199,-0.859 2.301,0 3.219,1.34 3.219,2.781 z"
         style="fill:#000000;fill-opacity:1;fill-rule:nonzero;stroke:none"
         id="path42"
         inkscape:connector-curvature="0" /><path
         d="m 55.359,6.578 0,1.141 -0.5,0 0,-1.098 c 0,-1.48 -0.605,-2.242 -1.339,-2.242 -1.34,0 -1.34,1.82 -1.34,2.16 l 0,5.559 2.859,0 0,0.621 -2.859,0 0,3.679 -0.5,0 c -0.02,-1.64 -0.621,-3.777 -2.582,-3.859 l 0,-0.441 1.699,0 0,-5.52 c 0,-2.457 1.863,-2.699 2.582,-2.699 1.418,0 1.98,1.422 1.98,2.699 z"
         style="fill:#000000;fill-opacity:1;fill-rule:nonzero;stroke:none"
         id="path44"
         inkscape:connector-curvature="0" /><path
         d="m 84.035,5.859 c 0,0.121 0,0.34 -0.262,0.34 -0.218,0 -0.218,-0.18 -0.238,-0.32 -0.121,-1.418 -0.824,-1.781 -1.324,-1.781 -0.977,0 -1.137,1.023 -1.418,2.882 l -0.258,1.598 c -0.367,1.281 -1.34,1.941 -2.441,2.32 1.941,0.481 3.5,1.7 3.5,3.262 0,1.918 -2.282,3.598 -5.219,3.598 l -6.281,0 0,-0.617 0.48,0 c 1.539,0 1.578,-0.223 1.578,-0.942 l 0,-10.539 c 0,-0.723 -0.039,-0.941 -1.578,-0.941 l -0.48,0 0,-0.621 c 0.718,0.062 2.14,0.062 2.918,0.062 0.781,0 2.199,0 2.922,-0.062 l 0,0.621 -0.481,0 c -1.539,0 -1.578,0.218 -1.578,0.941 l 0,5.059 2.293,0 c 0.324,0 1.164,0 1.867,-0.68 0.758,-0.719 0.758,-1.34 0.758,-2.68 0,-1.301 0,-2.101 0.82,-2.859 0.821,-0.719 1.922,-0.84 2.516,-0.84 1.566,0 1.906,1.641 1.906,2.199 z m -4.5,8.301 c 0,-1.379 -0.48,-3 -3.441,-3 l -2.219,0 0,5.18 c 0,0.461 0,0.699 0.437,0.758 0.2,0.043 0.782,0.043 1.18,0.043 1.801,0 4.043,-0.083 4.043,-2.981 z"
         style="fill:#000000;fill-opacity:1;fill-rule:nonzero;stroke:none"
         id="path46"
         inkscape:connector-curvature="0" /><path
         d="m 92.613,10.5 c 0,1.598 -0.101,3.199 -0.801,4.68 -0.917,1.918 -2.558,2.238 -3.398,2.238 -1.203,0 -2.66,-0.52 -3.48,-2.379 -0.641,-1.379 -0.739,-2.941 -0.739,-4.539 0,-1.5 0.078,-3.301 0.899,-4.82 0.859,-1.622 2.32,-2.02 3.301,-2.02 1.078,0 2.597,0.418 3.48,2.32 0.637,1.379 0.738,2.938 0.738,4.52 z m -1.66,0.238 c 0,-1.5 0,-2.859 -0.219,-4.14 -0.3,-1.899 -1.441,-2.5 -2.339,-2.5 -0.782,0 -1.961,0.5 -2.321,2.421 -0.222,1.2 -0.222,3.039 -0.222,4.219 0,1.281 0,2.602 0.16,3.68 0.383,2.383 1.883,2.562 2.383,2.562 0.66,0 1.98,-0.359 2.359,-2.339 0.199,-1.122 0.199,-2.641 0.199,-3.903 z"
         style="fill:#000000;fill-opacity:1;fill-rule:nonzero;stroke:none"
         id="path48"
         inkscape:connector-curvature="0" /><path
         d="m 229.199,4.098 0,0.621 -0.359,0 c -1.199,0 -1.481,0.14 -1.699,0.8 l -4.321,12.5 c -0.101,0.262 -0.14,0.399 -0.461,0.399 -0.32,0 -0.379,-0.117 -0.48,-0.399 L 217.738,6.058 c -0.359,-1.019 -1.16,-1.32 -2.238,-1.339 l 0,-0.621 2.039,0.062 2.301,-0.062 0,0.621 c -1,0 -1.5,0.5 -1.5,1.019 0,0.063 0.019,0.262 0.039,0.301 l 0.922,2.621 4.937,0 1.063,-3.062 c 0.019,-0.079 0.058,-0.2 0.058,-0.278 0,-0.601 -1.121,-0.601 -1.66,-0.601 l 0,-0.621 c 0.719,0.062 2.121,0.062 2.879,0.062 l 2.621,-0.062 z m -5.183,5.183 -4.5,0 2.242,6.5 2.258,-6.5 z"
         style="fill:#000000;fill-opacity:1;fill-rule:nonzero;stroke:none"
         id="path50"
         inkscape:connector-curvature="0" /><path
         d="m 239.758,4.098 0,0.621 c -1.399,0 -1.559,0.14 -1.559,1.121 l 0,12.14 -2.879,-0.222 0,-0.617 c 1.399,0 1.559,-0.141 1.559,-1.122 l 0,-4.32 c -0.578,0.719 -1.445,1.238 -2.52,1.238 -2.359,0 -4.461,-1.957 -4.461,-4.539 0,-2.539 1.961,-4.519 4.243,-4.519 1.277,0 2.179,0.679 2.679,1.32 l 0,-1.32 2.938,0.219 z m -2.938,2.363 c 0,-0.363 0,-0.403 -0.222,-0.742 -0.598,-0.961 -1.5,-1.399 -2.36,-1.399 -0.898,0 -1.617,0.52 -2.097,1.278 -0.52,0.82 -0.582,1.96 -0.582,2.781 0,0.742 0.039,1.941 0.621,2.84 0.418,0.621 1.179,1.281 2.254,1.281 0.707,0 1.546,-0.301 2.164,-1.199 0.222,-0.34 0.222,-0.383 0.222,-0.743 l 0,-4.097 z"
         style="fill:#000000;fill-opacity:1;fill-rule:nonzero;stroke:none"
         id="path52"
         inkscape:connector-curvature="0" /><path
         d="m 243.84,3.098 0,9.839 -3.039,-0.218 0,-0.621 c 1.539,0 1.715,-0.137 1.715,-1.118 l 0,-7.922 c 0,-0.898 -0.176,-2.621 -1.457,-2.621 -0.098,0 -0.559,0 -1.079,0.262 0.301,0.082 0.7,0.359 0.7,0.899 0,0.523 -0.36,0.921 -0.922,0.921 -0.559,0 -0.918,-0.398 -0.918,-0.921 0,-1.04 1.121,-1.598 2.258,-1.598 1.5,0 2.742,1.281 2.742,3.098 z m 0,13.082 c 0,0.539 -0.461,1.058 -1.059,1.058 -0.683,0 -1.082,-0.558 -1.082,-1.058 0,-0.539 0.461,-1.059 1.059,-1.059 0.676,0 1.082,0.559 1.082,1.059 z"
         style="fill:#000000;fill-opacity:1;fill-rule:nonzero;stroke:none"
         id="path54"
         inkscape:connector-curvature="0" /><path
         d="m 257.238,4.098 0,0.621 c -1.398,0 -1.558,0.14 -1.558,1.121 l 0,7.097 -2.942,-0.218 0,-0.621 c 1.403,0 1.563,-0.137 1.563,-1.118 l 0,-3.562 c 0,-1.738 -0.961,-3.098 -2.422,-3.098 -1.68,0 -1.758,0.938 -1.758,1.981 l 0,6.636 -2.941,-0.218 0,-0.621 c 1.558,0 1.558,-0.059 1.558,-1.84 l 0,-3 c 0,-1.559 0,-3.379 3.043,-3.379 1.117,0 2,0.558 2.578,1.801 l 0,-1.801 2.879,0.219 z"
         style="fill:#000000;fill-opacity:1;fill-rule:nonzero;stroke:none"
         id="path56"
         inkscape:connector-curvature="0" /><path
         d="m 264.199,6.66 c 0,1.059 -0.601,1.66 -0.84,1.898 -0.66,0.641 -1.441,0.801 -2.281,0.961 -1.117,0.219 -2.457,0.481 -2.457,1.641 0,0.699 0.52,1.52 2.238,1.52 2.2,0 2.301,-1.801 2.34,-2.422 0.02,-0.18 0.235,-0.18 0.235,-0.18 0.265,0 0.265,0.102 0.265,0.48 l 0,2.02 c 0,0.34 0,0.48 -0.219,0.48 -0.101,0 -0.14,0 -0.402,-0.238 -0.062,-0.082 -0.258,-0.262 -0.34,-0.32 -0.758,0.558 -1.578,0.558 -1.879,0.558 -2.441,0 -3.199,-1.339 -3.199,-2.46 0,-0.7 0.32,-1.258 0.856,-1.7 0.644,-0.519 1.203,-0.64 2.644,-0.918 0.438,-0.082 2.078,-0.402 2.078,-1.839 0,-1.02 -0.699,-1.821 -2.258,-1.821 -1.679,0 -2.402,1.141 -2.781,2.84 -0.058,0.258 -0.078,0.34 -0.281,0.34 -0.258,0 -0.258,-0.141 -0.258,-0.5 l 0,-2.641 c 0,-0.34 0,-0.48 0.219,-0.48 0.101,0 0.121,0.019 0.5,0.402 0.039,0.039 0.039,0.078 0.402,0.457 0.879,-0.84 1.778,-0.859 2.199,-0.859 2.301,0 3.219,1.34 3.219,2.781 z"
         style="fill:#000000;fill-opacity:1;fill-rule:nonzero;stroke:none"
         id="path58"
         inkscape:connector-curvature="0" /><path
         d="m 270.859,6.578 0,1.141 -0.5,0 0,-1.098 c 0,-1.48 -0.601,-2.242 -1.343,-2.242 -1.336,0 -1.336,1.82 -1.336,2.16 l 0,5.559 2.859,0 0,0.621 -2.859,0 0,3.679 -0.5,0 c -0.02,-1.64 -0.621,-3.777 -2.582,-3.859 l 0,-0.441 1.703,0 0,-5.52 c 0,-2.457 1.859,-2.699 2.578,-2.699 1.422,0 1.98,1.422 1.98,2.699 z"
         style="fill:#000000;fill-opacity:1;fill-rule:nonzero;stroke:none"
         id="path60"
         inkscape:connector-curvature="0" /><path
         d="m 300.863,5.859 c 0,0.121 0,0.34 -0.265,0.34 -0.215,0 -0.215,-0.18 -0.235,-0.32 -0.121,-1.418 -0.824,-1.781 -1.324,-1.781 -0.98,0 -1.137,1.023 -1.418,2.882 l -0.258,1.598 c -0.367,1.281 -1.34,1.941 -2.445,2.32 1.945,0.481 3.5,1.7 3.5,3.262 0,1.918 -2.277,3.598 -5.215,3.598 l -6.285,0 0,-0.617 0.484,0 c 1.539,0 1.578,-0.223 1.578,-0.942 l 0,-10.539 c 0,-0.723 -0.039,-0.941 -1.578,-0.941 l -0.484,0 0,-0.621 c 0.723,0.062 2.141,0.062 2.922,0.062 0.781,0 2.199,0 2.922,-0.062 l 0,0.621 -0.481,0 c -1.539,0 -1.578,0.218 -1.578,0.941 l 0,5.059 2.293,0 c 0.324,0 1.164,0 1.867,-0.68 0.758,-0.719 0.758,-1.34 0.758,-2.68 0,-1.301 0,-2.101 0.82,-2.859 0.821,-0.719 1.922,-0.84 2.516,-0.84 1.566,0 1.906,1.641 1.906,2.199 z m -4.5,8.301 c 0,-1.379 -0.48,-3 -3.445,-3 l -2.215,0 0,5.18 c 0,0.461 0,0.699 0.438,0.758 0.199,0.043 0.777,0.043 1.179,0.043 1.801,0 4.043,-0.083 4.043,-2.981 z"
         style="fill:#000000;fill-opacity:1;fill-rule:nonzero;stroke:none"
         id="path62"
         inkscape:connector-curvature="0" /><path
         d="m 309.441,10.5 c 0,1.598 -0.101,3.199 -0.8,4.68 -0.918,1.918 -2.563,2.238 -3.399,2.238 -1.203,0 -2.664,-0.52 -3.48,-2.379 -0.641,-1.379 -0.739,-2.941 -0.739,-4.539 0,-1.5 0.075,-3.301 0.895,-4.82 0.863,-1.622 2.324,-2.02 3.305,-2.02 1.078,0 2.597,0.418 3.48,2.32 0.637,1.379 0.738,2.938 0.738,4.52 z m -1.66,0.238 c 0,-1.5 0,-2.859 -0.222,-4.14 -0.297,-1.899 -1.438,-2.5 -2.336,-2.5 -0.782,0 -1.961,0.5 -2.321,2.421 -0.222,1.2 -0.222,3.039 -0.222,4.219 0,1.281 0,2.602 0.16,3.68 0.383,2.383 1.883,2.562 2.383,2.562 0.66,0 1.98,-0.359 2.355,-2.339 0.203,-1.122 0.203,-2.641 0.203,-3.903 z"
         style="fill:#000000;fill-opacity:1;fill-rule:nonzero;stroke:none"
         id="path64"
         inkscape:connector-curvature="0" /><path
         d="M 146.777,146.449 71.918,64.781"
         style="fill:none;stroke:#000000;stroke-width:0.80000001;stroke-linecap:square;stroke-linejoin:miter;stroke-miterlimit:10;stroke-dasharray:none;stroke-opacity:1"
         id="path66"
         inkscape:connector-curvature="0" /><path
         d="m 74.129,62.754 -4.426,4.054 -8.598,-13.824 13.024,9.77 z"
         style="fill:#000000;fill-opacity:1;fill-rule:nonzero;stroke:none"
         id="path68"
         inkscape:connector-curvature="0" /><path
         d="M 171.105,146.449 245.961,64.781"
         style="fill:none;stroke:#000000;stroke-width:0.80000001;stroke-linecap:square;stroke-linejoin:miter;stroke-miterlimit:10;stroke-dasharray:none;stroke-opacity:1"
         id="path70"
         inkscape:connector-curvature="0" /><path
         d="m 248.18,66.808 -4.426,-4.054 13.023,-9.77 -8.597,13.824 z"
         style="fill:#000000;fill-opacity:1;fill-rule:nonzero;stroke:none"
         id="path72"
         inkscape:connector-curvature="0" /><g
         id="g74"
         transform="translate(0,-0.402466)"><g
           id="g76"><g
             id="g78"
             clip-path="url(#clipPath80)"><g
               id="g84"><path
                 d="m 332.945,8.293 c 0,1.535 -1.183,3 -3.133,3.395 1.54,0.503 2.626,1.816 2.626,3.296 0,1.539 -1.649,2.59 -3.45,2.59 -1.89,0 -3.316,-1.125 -3.316,-2.551 0,-0.617 0.41,-0.976 0.957,-0.976 0.578,0 0.953,0.414 0.953,0.957 0,0.937 -0.879,0.937 -1.16,0.937 0.582,0.918 1.816,1.164 2.492,1.164 0.77,0 1.801,-0.414 1.801,-2.101 0,-0.223 -0.039,-1.313 -0.527,-2.137 -0.563,-0.898 -1.2,-0.957 -1.668,-0.976 -0.149,-0.016 -0.598,-0.055 -0.731,-0.055 -0.148,-0.02 -0.281,-0.039 -0.281,-0.227 0,-0.203 0.133,-0.203 0.449,-0.203 l 0.824,0 c 1.539,0 2.231,-1.277 2.231,-3.113 0,-2.551 -1.293,-3.094 -2.117,-3.094 -0.805,0 -2.211,0.317 -2.868,1.426 0.657,-0.094 1.239,0.316 1.239,1.031 0,0.672 -0.508,1.047 -1.051,1.047 -0.449,0 -1.051,-0.262 -1.051,-1.086 0,-1.707 1.746,-2.945 3.789,-2.945 2.285,0 3.992,1.707 3.992,3.621 z"
                 style="fill:#000000;fill-opacity:1;fill-rule:nonzero;stroke:none"
                 id="path86"
                 inkscape:connector-curvature="0" /></g></g></g></g><path
         d="m 116.621,7.738 -0.469,0 C 116.059,7.176 115.926,6.351 115.738,6.07 115.605,5.922 114.371,5.922 113.957,5.922 l -3.375,0 1.988,1.929 c 2.926,2.59 4.051,3.602 4.051,5.477 0,2.137 -1.687,3.637 -3.976,3.637 -2.118,0 -3.504,-1.727 -3.504,-3.395 0,-1.051 0.937,-1.051 0.992,-1.051 0.32,0 0.976,0.227 0.976,0.997 0,0.488 -0.339,0.972 -0.996,0.972 -0.148,0 -0.183,0 -0.242,-0.015 0.43,1.218 1.445,1.91 2.531,1.91 1.707,0 2.512,-1.52 2.512,-3.055 0,-1.5 -0.937,-2.98 -1.969,-4.145 l -3.597,-4.011 c -0.207,-0.207 -0.207,-0.246 -0.207,-0.696 l 6.953,0 0.527,3.262 z"
         style="fill:#000000;fill-opacity:1;fill-rule:nonzero;stroke:none"
         id="path88"
         inkscape:connector-curvature="0" /></g></g></svg>